<?xml version="1.0" encoding="UTF-8"?>
<svg version="1.1" xmlns="http://www.w3.org/2000/svg" width="265" height="264">
<path d="M0 0 C87.45 0 174.9 0 265 0 C265 87.12 265 174.24 265 264 C177.55 264 90.1 264 0 264 C0 176.88 0 89.76 0 0 Z " fill="#8F382A" transform="translate(0,0)"/>
<path d="M0 0 C0.71233953 0.00223072 1.42467905 0.00446144 2.15860462 0.00675976 C3.28588836 0.00441978 3.28588836 0.00441978 4.43594551 0.00203252 C6.97331948 -0.00198032 9.51063442 0.00121325 12.04800892 0.00434887 C13.85931909 0.00299496 15.67062899 0.00121508 17.48193836 -0.00096118 C22.41568006 -0.00553668 27.34940096 -0.00374548 32.28314304 -0.0005821 C37.43433916 0.00194091 42.58553344 -0.00039587 47.73672962 -0.00196826 C56.38899526 -0.00379014 65.04125238 -0.00138319 73.69351673 0.00337231 C83.7119973 0.00881496 93.73045753 0.00705232 103.74893761 0.00154591 C112.3340421 -0.00298473 120.91914045 -0.00363602 129.50424576 -0.00101542 C134.63900492 0.00054762 139.77375451 0.00074036 144.90851307 -0.00255191 C149.73470104 -0.00542991 154.56086266 -0.00345626 159.38704777 0.00234234 C161.16366628 0.00367033 162.94028699 0.00327518 164.71690464 0.00107968 C167.1315838 -0.00163033 169.54617711 0.00174745 171.96085072 0.00675976 C173.02936 0.00341368 173.02936 0.00341368 174.11945534 0 C178.94557781 0.01959354 178.94557781 0.01959354 180.05972767 1.13374341 C180.05972767 23.24374341 180.05972767 45.35374341 180.05972767 68.13374341 C118.67972767 68.13374341 57.29972767 68.13374341 -5.94027233 68.13374341 C-5.94027233 0.02411687 -5.94027233 0.02411687 0 0 Z " fill="#8D3B31" transform="translate(43.94027233123779,95.8662565946579)"/>
<path d="M0 0 C0 0.66 0 1.32 0 2 C2.64 2.33 5.28 2.66 8 3 C8.33 4.98 8.66 6.96 9 9 C9.474375 8.01 9.94875 7.02 10.4375 6 C13 3 13 3 15.1640625 2.49609375 C20.96871617 2.35428625 20.96871617 2.35428625 23.734375 4.0859375 C25.66824478 7.0106171 25.5286506 9.72458302 25.6875 13.1875 C25.78611328 15.09595703 25.78611328 15.09595703 25.88671875 17.04296875 C25.94279297 18.50669922 25.94279297 18.50669922 26 20 C26.66 20 27.32 20 28 20 C27.9175 18.865625 27.835 17.73125 27.75 16.5625 C27.71267356 11.3461303 29.69305009 7.61389982 32 3 C35.63 3 39.26 3 43 3 C46.00559652 8.00932754 46.29341888 11.32723489 46 17 C44.68 17 43.36 17 42 17 C41.67 13.7 41.34 10.4 41 7 C39.02 7 37.04 7 35 7 C32.55067968 12.71508075 32.70233212 18.14851187 32.75 24.25 C32.74226563 25.25546875 32.73453125 26.2609375 32.7265625 27.296875 C32.73042969 28.73546875 32.73042969 28.73546875 32.734375 30.203125 C32.73663086 31.07614258 32.73888672 31.94916016 32.74121094 32.84863281 C32.80093082 35.21266171 32.80093082 35.21266171 35 37 C36.98 37 38.96 37 41 37 C41.33 32.71 41.66 28.42 42 24 C43.65 24 45.3 24 47 24 C47.495 28.95 47.495 28.95 48 34 C48.02578125 32.40929687 48.0515625 30.81859375 48.078125 29.1796875 C48.13441758 27.078098 48.19176465 24.97653656 48.25 22.875 C48.26417969 21.82828125 48.27835937 20.7815625 48.29296875 19.703125 C48.48759063 13.55307356 48.83833241 9.65858313 53 5 C55.25 3.625 55.25 3.625 57 3 C57 2.34 57 1.68 57 1 C62.94 1 68.88 1 75 1 C75 10.9 75 20.8 75 31 C75.66 31 76.32 31 77 31 C77 28.36 77 25.72 77 23 C77.66 23 78.32 23 79 23 C79 22.34 79 21.68 79 21 C83.09003859 19.85017398 87.03177051 19.88905744 91.25 19.9375 C92.36761719 19.94426758 92.36761719 19.94426758 93.5078125 19.95117188 C95.3385764 19.96290754 97.16929873 19.9808415 99 20 C98.9129995 18.37399059 98.8048219 16.74910322 98.6875 15.125 C98.62949219 14.22007813 98.57148438 13.31515625 98.51171875 12.3828125 C98.2117961 9.63778399 98.2117961 9.63778399 95 8 C92.71351152 7.75892674 92.71351152 7.75892674 90.3125 7.875 C89.10013672 7.90207031 89.10013672 7.90207031 87.86328125 7.9296875 C87.24839844 7.95289062 86.63351563 7.97609375 86 8 C85.67 10.31 85.34 12.62 85 15 C83.68 15.33 82.36 15.66 81 16 C81 13.36 81 10.72 81 8 C81.66 8 82.32 8 83 8 C83 7.01 83 6.02 83 5 C87.87744757 3.37418414 93.00613218 3.39317066 97.875 4.875 C100 6 100 6 102 8 C102.22705078 10.61376953 102.22705078 10.61376953 102.1953125 13.8828125 C102.18886719 15.04941406 102.18242187 16.21601562 102.17578125 17.41796875 C102.15064453 19.25294922 102.15064453 19.25294922 102.125 21.125 C102.11597656 22.35605469 102.10695313 23.58710938 102.09765625 24.85546875 C102.07402548 27.90383815 102.04108054 30.95182382 102 34 C101.27079346 33.84152588 100.54158691 33.68305176 99.7902832 33.51977539 C97.27400823 33.05104239 94.90777613 32.8051322 92.35546875 32.68359375 C91.09379883 32.62075195 91.09379883 32.62075195 89.80664062 32.55664062 C88.94232422 32.51732422 88.07800781 32.47800781 87.1875 32.4375 C86.30384766 32.39431641 85.42019531 32.35113281 84.50976562 32.30664062 C82.34000377 32.20108464 80.1700209 32.10008929 78 32 C78 32.99 78 33.98 78 35 C91.86 35.495 91.86 35.495 106 36 C106 37.65 106 39.3 106 41 C101.03377651 41.02465098 96.06758834 41.04283649 91.10131836 41.05493164 C89.41055684 41.0599719 87.71979971 41.06680405 86.02905273 41.07543945 C83.60399293 41.08751857 81.17899056 41.09323123 78.75390625 41.09765625 C77.61327477 41.10539818 77.61327477 41.10539818 76.44960022 41.11329651 C74.6326743 41.11349238 72.81586873 41.06197277 71 41 C70 40 70 40 69.88647461 36.58178711 C69.88663372 35.06363012 69.89232774 33.54546771 69.90234375 32.02734375 C69.9037587 31.22970108 69.90517365 30.43205841 69.90663147 29.61024475 C69.91224684 27.05262565 69.92480188 24.49509282 69.9375 21.9375 C69.94251302 20.20768355 69.94707627 18.47786574 69.95117188 16.74804688 C69.96222125 12.49866447 69.97949614 8.24934688 70 4 C68.68 4 67.36 4 66 4 C66.495 5.485 66.495 5.485 67 7 C67.09344286 8.67897419 67.13069789 10.36139764 67.1328125 12.04296875 C67.13410156 13.03490234 67.13539063 14.02683594 67.13671875 15.04882812 C67.13285156 16.08458984 67.12898438 17.12035156 67.125 18.1875 C67.12886719 19.20392578 67.13273437 20.22035156 67.13671875 21.26757812 C67.12939457 26.94015702 66.84652751 32.39007562 66 38 C65.34 38 64.68 38 64 38 C64 38.66 64 39.32 64 40 C59.88581814 41.99475484 56.55244646 42.34358086 52 42 C51.34 41.34 50.68 40.68 50 40 C49.01 40.495 49.01 40.495 48 41 C48 40.01 48 39.02 48 38 C47.01 38 46.02 38 45 38 C45 38.99 45 39.98 45 41 C42.00293305 41.86963087 39.35043474 42.11763099 36.234375 42.09765625 C35.34492187 42.09443359 34.45546875 42.09121094 33.5390625 42.08789062 C32.61867187 42.07951172 31.69828125 42.07113281 30.75 42.0625 C29.34621094 42.05573242 29.34621094 42.05573242 27.9140625 42.04882812 C25.60934753 42.03706938 23.30466554 42.01913468 21 42 C21 38.7 21 35.4 21 32 C15.555 32.495 15.555 32.495 10 33 C10.33 33.99 10.66 34.98 11 36 C10 38.625 10 38.625 8 41 C4.3125 41.8125 4.3125 41.8125 1 42 C1 41.01 1 40.02 1 39 C0.43152344 39.32097656 -0.13695313 39.64195312 -0.72265625 39.97265625 C-3.13107362 41.05912927 -4.81005023 41.36008814 -7.4375 41.4375 C-8.17871094 41.47746094 -8.91992188 41.51742187 -9.68359375 41.55859375 C-12.3451045 40.91677918 -14.15678298 40.00452239 -16.02075195 37.96850586 C-18.39884107 33.18801907 -17.52840524 27.25976379 -17.375 22.0625 C-17.36082031 20.79986328 -17.34664062 19.53722656 -17.33203125 18.23632812 C-17.24453289 12.7093484 -17.01434038 7.44348996 -16 2 C-10.61972975 0.80911014 -5.54708616 -0.2919519 0 0 Z " fill="#82413A" transform="translate(67,111)"/>
<path d="M0 0 C1.71176957 0.00276538 1.71176957 0.00276538 3.45812035 0.00558662 C4.76506355 0.0028373 6.07200676 0.00008797 7.41855431 -0.00274467 C8.87529655 0.00433412 10.33203787 0.01160375 11.78877831 0.01904488 C13.31614741 0.01960876 14.84351706 0.01929288 16.37088585 0.01815987 C20.52564076 0.01758445 24.68028093 0.0293692 28.8350091 0.04330778 C33.17387153 0.05578376 37.5127364 0.05698316 41.851614 0.0593586 C50.07161886 0.0655826 58.29157072 0.08200583 66.51155221 0.10205758 C75.86812414 0.12438799 85.22469856 0.1354028 94.58129048 0.14544845 C113.83196714 0.16637129 133.08257111 0.20305897 152.3332119 0.24609566 C152.3332119 13.44609566 152.3332119 26.64609566 152.3332119 40.24609566 C151.6732119 40.24609566 151.0132119 40.24609566 150.3332119 40.24609566 C150.0032119 36.61609566 149.6732119 32.98609566 149.3332119 29.24609566 C148.6732119 29.24609566 148.0132119 29.24609566 147.3332119 29.24609566 C147.6632119 30.23609566 147.9932119 31.22609566 148.3332119 32.24609566 C148.4017614 34.14080382 148.41801562 36.03777905 148.3957119 37.93359566 C148.38668846 38.92746284 148.37766502 39.92133003 148.36836815 40.94531441 C148.35096581 42.08420113 148.35096581 42.08420113 148.3332119 43.24609566 C148.9932119 43.57609566 149.6532119 43.90609566 150.3332119 44.24609566 C150.0032119 46.22609566 149.6732119 48.20609566 149.3332119 50.24609566 C148.6732119 49.25609566 148.0132119 48.26609566 147.3332119 47.24609566 C146.3432119 48.23609566 145.3532119 49.22609566 144.3332119 50.24609566 C143.6732119 49.91609566 143.0132119 49.58609566 142.3332119 49.24609566 C142.81403221 48.55129097 143.29485252 47.85648628 143.79024315 47.14062691 C145.5270897 43.88239072 145.81936011 41.5981982 146.0207119 37.93359566 C146.11932518 36.33064644 146.11932518 36.33064644 146.21993065 34.69531441 C146.25731346 33.88707222 146.29469627 33.07883003 146.3332119 32.24609566 C145.3432119 32.24609566 144.3532119 32.24609566 143.3332119 32.24609566 C143.36801659 32.99375191 143.40282127 33.74140816 143.43868065 34.51172066 C143.46575096 35.49656441 143.49282127 36.48140816 143.5207119 37.49609566 C143.55551659 38.47062691 143.59032127 39.44515816 143.62618065 40.44922066 C143.29396391 43.62078308 142.44648911 44.91649873 140.3332119 47.24609566 C135.5832119 46.49609566 135.5832119 46.49609566 133.3332119 44.24609566 C133.10616112 42.0913105 133.10616112 42.0913105 133.1378994 39.45703316 C133.14756737 38.04550972 133.14756737 38.04550972 133.15743065 36.60547066 C133.18256737 35.12820503 133.18256737 35.12820503 133.2082119 33.62109566 C133.21723534 32.62851753 133.22625877 31.63593941 133.23555565 30.61328316 C133.25916941 28.15745178 133.2950412 25.70174392 133.3332119 23.24609566 C137.6232119 23.24609566 141.9132119 23.24609566 146.3332119 23.24609566 C145.87498721 19.77668019 145.44189507 16.57214517 144.3332119 13.24609566 C143.3432119 12.75109566 143.3432119 12.75109566 142.3332119 12.24609566 C142.9932119 12.24609566 143.6532119 12.24609566 144.3332119 12.24609566 C144.0032119 10.26609566 143.6732119 8.28609566 143.3332119 6.24609566 C140.6932119 6.24609566 138.0532119 6.24609566 135.3332119 6.24609566 C135.3332119 5.58609566 135.3332119 4.92609566 135.3332119 4.24609566 C134.6732119 4.90609566 134.0132119 5.56609566 133.3332119 6.24609566 C130.61382291 8.96548465 129.05648428 8.54000231 125.25118065 8.62500191 C123.38622948 8.67624214 123.38622948 8.67624214 121.48360252 8.72851753 C120.17584862 8.75494331 118.86809471 8.78136909 117.5207119 8.80859566 C114.9724665 8.86960816 112.42428592 8.93339331 109.87618065 9.00000191 C108.74204735 9.02393013 107.60791405 9.04785835 106.43941307 9.07251167 C103.03076331 9.18149213 99.64608215 9.45820036 96.24776268 9.74170113 C89.2166015 10.29963282 82.20813401 10.46618883 75.15743065 10.56250191 C73.86625832 10.583283 72.57508598 10.6040641 71.24478722 10.62547493 C67.86004259 10.67990768 64.47524582 10.72965433 61.09041405 10.77832222 C57.61726465 10.82912382 54.14418824 10.88449933 50.67110252 10.93945503 C43.89186921 11.04606823 37.11256957 11.14771594 30.3332119 11.24609566 C30.0032119 12.89609566 29.6732119 14.54609566 29.3332119 16.24609566 C28.8382119 15.25609566 28.8382119 15.25609566 28.3332119 14.24609566 C25.18390297 13.19632601 22.94506734 13.14477971 19.6457119 13.18359566 C18.65184471 13.19261909 17.65797752 13.20164253 16.63399315 13.21093941 C15.87473534 13.22254097 15.11547752 13.23414253 14.3332119 13.24609566 C14.0238369 13.86484566 13.7144619 14.48359566 13.3957119 15.12109566 C12.7082119 16.49609566 12.0207119 17.87109566 11.3332119 19.24609566 C11.10370871 21.45045966 10.92245256 23.66001738 10.7707119 25.87109566 C10.68692284 27.05961128 10.60313377 28.24812691 10.51680565 29.47265816 C10.42592674 30.84550972 10.42592674 30.84550972 10.3332119 32.24609566 C10.0032119 32.24609566 9.6732119 32.24609566 9.3332119 32.24609566 C9.3332119 25.97609566 9.3332119 19.70609566 9.3332119 13.24609566 C7.3532119 13.24609566 5.3732119 13.24609566 3.3332119 13.24609566 C2.6732119 12.91609566 2.0132119 12.58609566 1.3332119 12.24609566 C1.3332119 11.58609566 1.3332119 10.92609566 1.3332119 10.24609566 C0.5700869 10.41109566 -0.1930381 10.57609566 -0.9792881 10.74609566 C-5.8882466 11.41171715 -10.72113924 11.32529644 -15.6667881 11.24609566 C-15.9967881 12.89609566 -16.3267881 14.54609566 -16.6667881 16.24609566 C-18.6667881 14.87109566 -18.6667881 14.87109566 -20.6667881 12.24609566 C-21.02469906 8.88804875 -20.89794633 5.61073209 -20.6667881 2.24609566 C-17.86929969 1.31359952 -16.12357929 1.11133414 -13.2292881 1.12109566 C-12.08653419 1.11722847 -12.08653419 1.11722847 -10.92069435 1.11328316 C-8.6667881 1.24609566 -8.6667881 1.24609566 -6.50663185 1.87890816 C-5.59590919 2.06066597 -5.59590919 2.06066597 -4.6667881 2.24609566 C-2.6667881 0.24609566 -2.6667881 0.24609566 0 0 Z " fill="#91392D" transform="translate(65.66678810119629,100.75390434265137)"/>
<path d="M0 0 C0 0.66 0 1.32 0 2 C4.455 1.505 4.455 1.505 9 1 C8.93489583 2.98567708 8.86979167 4.97135417 8.8046875 6.95703125 C8.86745538 9.31359719 8.86745538 9.31359719 11 12 C11.07905064 14.33199388 11.08798769 16.66832622 11 19 C6.71 19 2.42 19 -2 19 C-1.88649004 22.45906666 -1.75973694 25.91675193 -1.625 29.375 C-1.5940625 30.35984375 -1.563125 31.3446875 -1.53125 32.359375 C-1.49257812 33.30039063 -1.45390625 34.24140625 -1.4140625 35.2109375 C-1.3826416 36.08024902 -1.3512207 36.94956055 -1.31884766 37.84521484 C-1.18770567 40.20961794 -1.18770567 40.20961794 1 42 C2.32 42 3.64 42 5 42 C7.18994248 38.71508627 7.35277339 37.16904361 7.625 33.3125 C7.69976562 32.31863281 7.77453125 31.32476562 7.8515625 30.30078125 C7.92503906 29.16189453 7.92503906 29.16189453 8 28 C8.99 28 9.98 28 11 28 C11.68902754 39.82830611 11.68902754 39.82830611 9.0625 43.6875 C7 46 7 46 6 47 C4.02287193 47.09900199 2.04209962 47.12970773 0.0625 47.125 C-1.55978516 47.12886719 -1.55978516 47.12886719 -3.21484375 47.1328125 C-6 47 -6 47 -8 46 C-7.67 45.01 -7.34 44.02 -7 43 C-6.91684248 40.93501108 -6.89264122 38.8674211 -6.90234375 36.80078125 C-6.90556641 35.59228516 -6.90878906 34.38378906 -6.91210938 33.13867188 C-6.92048828 31.87603516 -6.92886719 30.61339844 -6.9375 29.3125 C-6.94201172 28.03826172 -6.94652344 26.76402344 -6.95117188 25.45117188 C-6.96297127 22.30073436 -6.97943403 19.15039051 -7 16 C-7.495 16.495 -7.495 16.495 -8 17 C-10.33297433 17.04092937 -12.66705225 17.04241723 -15 17 C-14.505 18.485 -14.505 18.485 -14 20 C-13.7932654 22.50378571 -13.62714899 24.99222628 -13.5 27.5 C-13.18583154 33.31903211 -12.72350199 39.0789542 -11.98828125 44.86328125 C-12 47 -12 47 -14 50 C-15.98 49.34 -17.96 48.68 -20 48 C-20 37.77 -20 27.54 -20 17 C-21.65 17 -23.3 17 -25 17 C-25.495 15.02 -25.495 15.02 -26 13 C-24.02 13 -22.04 13 -20 13 C-20 10.69 -20 8.38 -20 6 C-18.02 6 -16.04 6 -14 6 C-14.33 7.98 -14.66 9.96 -15 12 C-13.02 12 -11.04 12 -9 12 C-9 11.34 -9 10.68 -9 10 C-9.99 10 -10.98 10 -12 10 C-12 9.01 -12 8.02 -12 7 C-10.68 6.67 -9.36 6.34 -8 6 C-18.89 5.505 -18.89 5.505 -30 5 C-29.505 8.465 -29.505 8.465 -29 12 C-29.33 12.66 -29.66 13.32 -30 14 C-30.15344209 15.88472859 -30.24959571 17.77427874 -30.31640625 19.6640625 C-30.35830078 20.78554687 -30.40019531 21.90703125 -30.44335938 23.0625 C-30.48267578 24.238125 -30.52199219 25.41375 -30.5625 26.625 C-30.62727539 28.40003906 -30.62727539 28.40003906 -30.69335938 30.2109375 C-30.79967426 33.14050328 -30.90170642 36.07015588 -31 39 C-31.33 39 -31.66 39 -32 39 C-32.029729 37.87972412 -32.029729 37.87972412 -32.06005859 36.73681641 C-32.15508211 33.36584395 -32.26485259 29.99551071 -32.375 26.625 C-32.4059375 25.449375 -32.436875 24.27375 -32.46875 23.0625 C-32.50742188 21.94101563 -32.54609375 20.81953125 -32.5859375 19.6640625 C-32.6173584 18.62717285 -32.6487793 17.5902832 -32.68115234 16.52197266 C-32.75954472 13.83190165 -32.75954472 13.83190165 -35 12 C-38.38784099 10.78678667 -41.68159982 10.89871304 -45.25 10.9375 C-46.32765625 10.94652344 -47.4053125 10.95554687 -48.515625 10.96484375 C-49.74539062 10.98224609 -49.74539062 10.98224609 -51 11 C-51 11.99 -51 12.98 -51 14 C-51.66 14 -52.32 14 -53 14 C-53 16.64 -53 19.28 -53 22 C-52.01 21.67 -51.02 21.34 -50 21 C-49.855625 19.865625 -49.71125 18.73125 -49.5625 17.5625 C-49 14 -49 14 -48 13 C-46.07421875 12.796875 -46.07421875 12.796875 -43.6875 12.75 C-42.90761719 12.72421875 -42.12773437 12.6984375 -41.32421875 12.671875 C-39 13 -39 13 -35 16 C-35 19.3 -35 22.6 -35 26 C-44.9 26.495 -44.9 26.495 -55 27 C-55 27.66 -55 28.32 -55 29 C-55.66 29 -56.32 29 -57 29 C-57 31.64 -57 34.28 -57 37 C-57.66 37 -58.32 37 -59 37 C-59 27.1 -59 17.2 -59 7 C-64.94 7 -70.88 7 -77 7 C-77 7.66 -77 8.32 -77 9 C-77.78375 9.61875 -78.5675 10.2375 -79.375 10.875 C-82.74268839 13.60122393 -83.81906551 15.44002882 -84.31884766 19.74902344 C-84.35026855 20.77543945 -84.38168945 21.80185547 -84.4140625 22.859375 C-84.45273438 23.97441406 -84.49140625 25.08945313 -84.53125 26.23828125 C-84.57765625 27.97658203 -84.57765625 27.97658203 -84.625 29.75 C-84.66367188 30.92433594 -84.70234375 32.09867188 -84.7421875 33.30859375 C-84.8363982 36.20557268 -84.92201602 39.10254626 -85 42 C-87 40 -87 40 -87.1953125 37.6171875 C-87.17210938 36.71226562 -87.14890625 35.80734375 -87.125 34.875 C-87.10695313 33.96492188 -87.08890625 33.05484375 -87.0703125 32.1171875 C-87.04710938 31.41851562 -87.02390625 30.71984375 -87 30 C-88.65 30 -90.3 30 -92 30 C-91.98839844 30.92683594 -91.97679688 31.85367188 -91.96484375 32.80859375 C-91.95582031 34.00613281 -91.94679688 35.20367187 -91.9375 36.4375 C-91.92589844 37.63246094 -91.91429688 38.82742187 -91.90234375 40.05859375 C-92 43 -92 43 -93 44 C-98.35784007 44.46589914 -98.35784007 44.46589914 -100.67041016 42.78808594 C-102.40544482 40.45474148 -102.38708049 39.03179415 -102.3984375 36.140625 C-102.40230469 35.18929687 -102.40617187 34.23796875 -102.41015625 33.2578125 C-102.39855469 32.26523438 -102.38695313 31.27265625 -102.375 30.25 C-102.38660156 29.27289063 -102.39820312 28.29578125 -102.41015625 27.2890625 C-102.38641079 21.41601777 -101.74928826 17.20764654 -99 12 C-97.00045254 11.95745644 -94.99958364 11.95919217 -93 12 C-92 13 -92 13 -91.90234375 15.28515625 C-91.91394531 16.20167969 -91.92554687 17.11820313 -91.9375 18.0625 C-91.94652344 18.98160156 -91.95554687 19.90070313 -91.96484375 20.84765625 C-91.97644531 21.55792969 -91.98804687 22.26820312 -92 23 C-90.68 23 -89.36 23 -88 23 C-88.30975468 21.22868439 -88.62290425 19.45796222 -88.9375 17.6875 C-89.11152344 16.70136719 -89.28554687 15.71523437 -89.46484375 14.69921875 C-89.95746847 11.91810787 -89.95746847 11.91810787 -91 9 C-94.63 9 -98.26 9 -102 9 C-102.33 10.32 -102.66 11.64 -103 13 C-103.33 13.7425 -103.66 14.485 -104 15.25 C-105.30605918 18.84166274 -105.61352165 22.19962955 -106 26 C-106.66 26 -107.32 26 -108 26 C-108.33 26.66 -108.66 27.32 -109 28 C-109.07347656 26.31970703 -109.07347656 26.31970703 -109.1484375 24.60546875 C-109.22347856 23.13278797 -109.29902582 21.66013293 -109.375 20.1875 C-109.42140625 19.08051758 -109.42140625 19.08051758 -109.46875 17.95117188 C-109.67346148 14.18106885 -109.86433827 12.20349259 -112 9 C-111.01 8.67 -110.02 8.34 -109 8 C-109 8.66 -109 9.32 -109 10 C-108.01 10 -107.02 10 -106 10 C-105.67 9.01 -105.34 8.02 -105 7 C-101.97969511 5.9932317 -99.88608033 5.85227779 -96.72509766 5.81054688 C-95.10663437 5.78547058 -95.10663437 5.78547058 -93.45547485 5.7598877 C-92.28680878 5.74631226 -91.1181427 5.73273682 -89.9140625 5.71875 C-88.10220963 5.69113586 -88.10220963 5.69113586 -86.25375366 5.66296387 C-82.37755265 5.60414414 -78.50130551 5.55144049 -74.625 5.5 C-70.78440604 5.44832849 -66.94386508 5.39515965 -63.10336304 5.33703613 C-60.71362699 5.30090079 -58.32383274 5.26836247 -55.93399048 5.2401123 C-49.22577429 5.13912618 -42.5841601 4.78884929 -35.8984375 4.2328186 C-32.39172006 3.95113958 -28.90283321 3.79598097 -25.38671875 3.68359375 C-24.12021484 3.64169922 -22.85371094 3.59980469 -21.54882812 3.55664062 C-20.27458984 3.51732422 -19.00035156 3.47800781 -17.6875 3.4375 C-16.34960084 3.39414291 -15.01171012 3.35052433 -13.67382812 3.30664062 C-10.44929176 3.2018723 -7.22469637 3.09969983 -4 3 C-4 2.34 -4 1.68 -4 1 C-2 0 -2 0 0 0 Z " fill="#8C3D36" transform="translate(201,105)"/>
<path d="M0 0 C0.71233953 0.00223072 1.42467905 0.00446144 2.15860462 0.00675976 C3.28588836 0.00441978 3.28588836 0.00441978 4.43594551 0.00203252 C6.97331948 -0.00198032 9.51063442 0.00121325 12.04800892 0.00434887 C13.85931909 0.00299496 15.67062899 0.00121508 17.48193836 -0.00096118 C22.41568006 -0.00553668 27.34940096 -0.00374548 32.28314304 -0.0005821 C37.43433916 0.00194091 42.58553344 -0.00039587 47.73672962 -0.00196826 C56.38899526 -0.00379014 65.04125238 -0.00138319 73.69351673 0.00337231 C83.7119973 0.00881496 93.73045753 0.00705232 103.74893761 0.00154591 C112.3340421 -0.00298473 120.91914045 -0.00363602 129.50424576 -0.00101542 C134.63900492 0.00054762 139.77375451 0.00074036 144.90851307 -0.00255191 C149.73470104 -0.00542991 154.56086266 -0.00345626 159.38704777 0.00234234 C161.16366628 0.00367033 162.94028699 0.00327518 164.71690464 0.00107968 C167.1315838 -0.00163033 169.54617711 0.00174745 171.96085072 0.00675976 C173.02936 0.00341368 173.02936 0.00341368 174.11945534 0 C178.94557781 0.01959354 178.94557781 0.01959354 180.05972767 1.13374341 C180.05972767 23.24374341 180.05972767 45.35374341 180.05972767 68.13374341 C118.67972767 68.13374341 57.29972767 68.13374341 -5.94027233 68.13374341 C-5.94027233 0.02411687 -5.94027233 0.02411687 0 0 Z M-2.94027233 3.13374341 C-2.94027233 23.59374341 -2.94027233 44.05374341 -2.94027233 65.13374341 C56.45972767 65.13374341 115.85972767 65.13374341 177.05972767 65.13374341 C177.05972767 44.67374341 177.05972767 24.21374341 177.05972767 3.13374341 C117.65972767 3.13374341 58.25972767 3.13374341 -2.94027233 3.13374341 Z " fill="#B87E72" transform="translate(43.94027233123779,95.8662565946579)"/>
<path d="M0 0 C5.94 0 11.88 0 18 0 C18 9.9 18 19.8 18 30 C18.66 30 19.32 30 20 30 C20 27.36 20 24.72 20 22 C20.66 22 21.32 22 22 22 C22 21.34 22 20.68 22 20 C26.09003859 18.85017398 30.03177051 18.88905744 34.25 18.9375 C34.99507812 18.94201172 35.74015625 18.94652344 36.5078125 18.95117188 C38.3385764 18.96290754 40.16929873 18.9808415 42 19 C41.9129995 17.37399059 41.8048219 15.74910322 41.6875 14.125 C41.62949219 13.22007813 41.57148438 12.31515625 41.51171875 11.3828125 C41.2117961 8.63778399 41.2117961 8.63778399 38 7 C35.71351152 6.75892674 35.71351152 6.75892674 33.3125 6.875 C32.10013672 6.90207031 32.10013672 6.90207031 30.86328125 6.9296875 C30.24839844 6.95289062 29.63351563 6.97609375 29 7 C28.67 9.31 28.34 11.62 28 14 C26.68 14.33 25.36 14.66 24 15 C24 12.36 24 9.72 24 7 C24.66 7 25.32 7 26 7 C26 6.01 26 5.02 26 4 C30.87744757 2.37418414 36.00613218 2.39317066 40.875 3.875 C43 5 43 5 45 7 C45.22705078 9.61376953 45.22705078 9.61376953 45.1953125 12.8828125 C45.18886719 14.04941406 45.18242187 15.21601562 45.17578125 16.41796875 C45.15902344 17.64128906 45.14226562 18.86460937 45.125 20.125 C45.11597656 21.35605469 45.10695312 22.58710938 45.09765625 23.85546875 C45.07402548 26.90383815 45.04108054 29.95182382 45 33 C44.27079346 32.84152588 43.54158691 32.68305176 42.7902832 32.51977539 C40.27400823 32.05104239 37.90777613 31.8051322 35.35546875 31.68359375 C34.51435547 31.64169922 33.67324219 31.59980469 32.80664062 31.55664062 C31.94232422 31.51732422 31.07800781 31.47800781 30.1875 31.4375 C28.86202148 31.37272461 28.86202148 31.37272461 27.50976562 31.30664062 C25.34000377 31.20108464 23.1700209 31.10008929 21 31 C21 31.99 21 32.98 21 34 C34.86 34.495 34.86 34.495 49 35 C49 36.65 49 38.3 49 40 C44.03377651 40.02465098 39.06758834 40.04283649 34.10131836 40.05493164 C32.41055684 40.0599719 30.71979971 40.06680405 29.02905273 40.07543945 C26.60399293 40.08751857 24.17899056 40.09323123 21.75390625 40.09765625 C20.61327477 40.10539818 20.61327477 40.10539818 19.44960022 40.11329651 C17.6326743 40.11349238 15.81586873 40.06197277 14 40 C13 39 13 39 12.88647461 35.58178711 C12.88663372 34.06363012 12.89232774 32.54546771 12.90234375 31.02734375 C12.9037587 30.22970108 12.90517365 29.43205841 12.90663147 28.61024475 C12.91224684 26.05262565 12.92480188 23.49509282 12.9375 20.9375 C12.94251302 19.20768355 12.94707627 17.47786574 12.95117188 15.74804688 C12.96222125 11.49866447 12.97949614 7.24934688 13 3 C11.68 3 10.36 3 9 3 C9.33 3.99 9.66 4.98 10 6 C10.09344286 7.67897419 10.13069789 9.36139764 10.1328125 11.04296875 C10.13474609 12.53086914 10.13474609 12.53086914 10.13671875 14.04882812 C10.13285156 15.08458984 10.12898438 16.12035156 10.125 17.1875 C10.13080078 18.71213867 10.13080078 18.71213867 10.13671875 20.26757812 C10.12939457 25.94015702 9.84652751 31.39007562 9 37 C8.34 37 7.68 37 7 37 C7 37.66 7 38.32 7 39 C3.94306678 40.52846661 1.37015453 40.23242445 -2 40 C-5.1850357 38.23984869 -5.83296972 37.50109084 -7 34 C-7.23218395 30.23315679 -7.18517227 26.46074936 -7.1875 22.6875 C-7.19974609 21.65431641 -7.21199219 20.62113281 -7.22460938 19.55664062 C-7.24721545 7.80901931 -7.24721545 7.80901931 -3.5 3.125 C-2 2 -2 2 0 2 C0 1.34 0 0.68 0 0 Z " fill="#B9877D" transform="translate(124,112)"/>
<path d="M0 0 C0 0.66 0 1.32 0 2 C2.64 2.33 5.28 2.66 8 3 C8 11.25 8 19.5 8 28 C7.67 28 7.34 28 7 28 C7 20.08 7 12.16 7 4 C6.01 4 5.02 4 4 4 C4 15.88 4 27.76 4 40 C4.99 40 5.98 40 7 40 C6.938125 39.071875 6.87625 38.14375 6.8125 37.1875 C7 34 7 34 8.1875 32.3125 C10.62574585 30.54687369 12.21044507 30.69651085 15.1875 30.8125 C16.53908203 30.85310547 16.53908203 30.85310547 17.91796875 30.89453125 C18.94857422 30.94673828 18.94857422 30.94673828 20 31 C20 31.33 20 31.66 20 32 C15.05 32.495 15.05 32.495 10 33 C10.33 33.99 10.66 34.98 11 36 C10 38.625 10 38.625 8 41 C4.3125 41.8125 4.3125 41.8125 1 42 C1 41.01 1 40.02 1 39 C0.43152344 39.32097656 -0.13695313 39.64195312 -0.72265625 39.97265625 C-3.13107362 41.05912927 -4.81005023 41.36008814 -7.4375 41.4375 C-8.17871094 41.47746094 -8.91992188 41.51742187 -9.68359375 41.55859375 C-12.3451045 40.91677918 -14.15678298 40.00452239 -16.02075195 37.96850586 C-18.39884107 33.18801907 -17.52840524 27.25976379 -17.375 22.0625 C-17.36082031 20.79986328 -17.34664062 19.53722656 -17.33203125 18.23632812 C-17.24453289 12.7093484 -17.01434038 7.44348996 -16 2 C-10.61972975 0.80911014 -5.54708616 -0.2919519 0 0 Z " fill="#985D52" transform="translate(67,111)"/>
<path d="M0 0 C0.73247639 0.00291284 1.46495277 0.00582568 2.21962541 0.00882679 C3.37859414 0.00754515 3.37859414 0.00754515 4.56097639 0.00623763 C7.16978554 0.00458048 9.77853146 0.010108 12.38733476 0.01555592 C14.24952754 0.01583777 16.11172042 0.0156801 17.97391313 0.01511341 C23.04601585 0.01482534 28.11809515 0.0207236 33.1901924 0.02768737 C38.48466001 0.03391934 43.77912809 0.03452458 49.0735988 0.03571278 C59.10691424 0.03882656 69.14021885 0.04704058 79.17352951 0.05706227 C90.59292284 0.06822195 102.01231669 0.07373349 113.43171412 0.0787577 C136.92921681 0.08922315 160.42670464 0.10756921 183.9242 0.12908131 C183.9242 23.55908131 183.9242 46.98908131 183.9242 71.12908131 C121.5542 71.12908131 59.1842 71.12908131 -5.0758 71.12908131 C-5.0758 70.46908131 -5.0758 69.80908131 -5.0758 69.12908131 C56.3042 69.12908131 117.6842 69.12908131 180.9242 69.12908131 C180.5942 47.01908131 180.2642 24.90908131 179.9242 2.12908131 C119.2042 2.12908131 58.4842 2.12908131 -4.0758 2.12908131 C-4.4058 23.90908131 -4.7358 45.68908131 -5.0758 68.12908131 C-5.4058 68.12908131 -5.7358 68.12908131 -6.0758 68.12908131 C-6.09892612 59.41064128 -6.11671646 50.69221175 -6.12761217 41.97374779 C-6.13284042 37.92582389 -6.13993699 33.8779209 -6.15123945 29.83000904 C-6.16207043 25.9267216 -6.16807728 22.02345432 -6.17067724 18.12015301 C-6.17253111 16.62774484 -6.176151 15.13533783 -6.18153006 13.6429382 C-6.18874331 11.55959991 -6.18979083 9.476346 -6.18932539 7.39299732 C-6.191546 6.20497013 -6.19376662 5.01694294 -6.19605452 3.79291493 C-5.98795874 -0.81674593 -4.12677194 0.01244275 0 0 Z " fill="#8E483B" transform="translate(43.075800001621246,94.8709186911583)"/>
<path d="M0 0 C0 0.66 0 1.32 0 2 C4.455 1.505 4.455 1.505 9 1 C8.93489583 2.98567708 8.86979167 4.97135417 8.8046875 6.95703125 C8.86745538 9.31359719 8.86745538 9.31359719 11 12 C11.07905064 14.33199388 11.08798769 16.66832622 11 19 C6.71 19 2.42 19 -2 19 C-1.88649004 22.45906666 -1.75973694 25.91675193 -1.625 29.375 C-1.5940625 30.35984375 -1.563125 31.3446875 -1.53125 32.359375 C-1.49257812 33.30039063 -1.45390625 34.24140625 -1.4140625 35.2109375 C-1.36693115 36.51490479 -1.36693115 36.51490479 -1.31884766 37.84521484 C-1.18770567 40.20961794 -1.18770567 40.20961794 1 42 C2.32 42 3.64 42 5 42 C7.18994248 38.71508627 7.35277339 37.16904361 7.625 33.3125 C7.69976562 32.31863281 7.77453125 31.32476562 7.8515625 30.30078125 C7.90054688 29.54152344 7.94953125 28.78226563 8 28 C8.99 28 9.98 28 11 28 C11.68902754 39.82830611 11.68902754 39.82830611 9.0625 43.6875 C7 46 7 46 6 47 C4.02287193 47.09900199 2.04209962 47.12970773 0.0625 47.125 C-1.55978516 47.12886719 -1.55978516 47.12886719 -3.21484375 47.1328125 C-6 47 -6 47 -8 46 C-7.67 45.01 -7.34 44.02 -7 43 C-6.91684248 40.93501108 -6.89264122 38.8674211 -6.90234375 36.80078125 C-6.90556641 35.59228516 -6.90878906 34.38378906 -6.91210938 33.13867188 C-6.92048828 31.87603516 -6.92886719 30.61339844 -6.9375 29.3125 C-6.94201172 28.03826172 -6.94652344 26.76402344 -6.95117188 25.45117188 C-6.96297127 22.30073436 -6.97943403 19.15039051 -7 16 C-7.33 16.33 -7.66 16.66 -8 17 C-10.33297433 17.04092937 -12.66705225 17.04241723 -15 17 C-14.67 17.99 -14.34 18.98 -14 20 C-13.7932654 22.50378571 -13.62714899 24.99222628 -13.5 27.5 C-13.18583154 33.31903211 -12.72350199 39.0789542 -11.98828125 44.86328125 C-12 47 -12 47 -14 50 C-15.98 49.34 -17.96 48.68 -20 48 C-20 37.77 -20 27.54 -20 17 C-21.65 17 -23.3 17 -25 17 C-25.33 15.68 -25.66 14.36 -26 13 C-24.02 13 -22.04 13 -20 13 C-20 10.69 -20 8.38 -20 6 C-18.02 6 -16.04 6 -14 6 C-14.33 7.98 -14.66 9.96 -15 12 C-13.02 12 -11.04 12 -9 12 C-9 11.34 -9 10.68 -9 10 C-9.99 10 -10.98 10 -12 10 C-12 9.01 -12 8.02 -12 7 C-8.535 6.505 -8.535 6.505 -5 6 C-4.87625 5.195625 -4.7525 4.39125 -4.625 3.5625 C-4.315625 2.2940625 -4.315625 2.2940625 -4 1 C-2 0 -2 0 0 0 Z " fill="#954E45" transform="translate(201,105)"/>
<path d="M0 0 C0.99 0 1.98 0 3 0 C3.33 21.12 3.66 42.24 4 64 C63.4 64.33 122.8 64.66 184 65 C184 43.55 184 22.1 184 0 C184.66 0 185.32 0 186 0 C186 22.11 186 44.22 186 67 C124.62 67 63.24 67 0 67 C0 44.89 0 22.78 0 0 Z " fill="#D49A8E" transform="translate(38,97)"/>
<path d="M0 0 C0.144375 1.134375 0.28875 2.26875 0.4375 3.4375 C0.61171478 6.80777201 0.61171478 6.80777201 2 8 C2.04092937 10.33297433 2.04241723 12.66705225 2 15 C-2.29 15 -6.58 15 -11 15 C-10.88649004 18.45906666 -10.75973694 21.91675193 -10.625 25.375 C-10.5940625 26.35984375 -10.563125 27.3446875 -10.53125 28.359375 C-10.49257812 29.30039063 -10.45390625 30.24140625 -10.4140625 31.2109375 C-10.3826416 32.08024902 -10.3512207 32.94956055 -10.31884766 33.84521484 C-10.18770567 36.20961794 -10.18770567 36.20961794 -8 38 C-6.68 38 -5.36 38 -4 38 C-1.81005752 34.71508627 -1.64722661 33.16904361 -1.375 29.3125 C-1.30023438 28.31863281 -1.22546875 27.32476562 -1.1484375 26.30078125 C-1.09945312 25.54152344 -1.05046875 24.78226563 -1 24 C-0.01 24 0.98 24 2 24 C2.68902754 35.82830611 2.68902754 35.82830611 0.0625 39.6875 C-2.88424437 42.99142551 -2.88424437 42.99142551 -6.375 43.25 C-10 43 -10 43 -11.875 41.6875 C-15.19926202 36.70110697 -14.18426939 30.36256005 -14.1875 24.625 C-14.19974609 23.48804688 -14.21199219 22.35109375 -14.22460938 21.1796875 C-14.22654297 20.08140625 -14.22847656 18.983125 -14.23046875 17.8515625 C-14.23457764 16.84947754 -14.23868652 15.84739258 -14.24291992 14.81494141 C-13.88786555 10.70059281 -12.92987619 7.92987619 -10 5 C-10.32041397 2.39719432 -10.32041397 2.39719432 -11 0 C-6.94952424 -1.35015859 -4.2079832 -0.62084998 0 0 Z " fill="#D0AB9F" transform="translate(210,109)"/>
<path d="M0 0 C0.66 0 1.32 0 2 0 C2 11.22 2 22.44 2 34 C1.67 34 1.34 34 1 34 C0.97421875 33.01257813 0.9484375 32.02515625 0.921875 31.0078125 C0.86515625 29.72648437 0.8084375 28.44515625 0.75 27.125 C0.70359375 25.84882813 0.6571875 24.57265625 0.609375 23.2578125 C0.37444944 19.90811895 0.37444944 19.90811895 -2.046875 18.5546875 C-2.69140625 18.37164062 -3.3359375 18.18859375 -4 18 C-4 17.34 -4 16.68 -4 16 C-4.66 16 -5.32 16 -6 16 C-5.67 16.66 -5.34 17.32 -5 18 C-4.90391392 19.83128771 -4.87017421 21.66619959 -4.875 23.5 C-4.87242188 24.4796875 -4.86984375 25.459375 -4.8671875 26.46875 C-5 29 -5 29 -6 31 C-6.99 31 -7.98 31 -9 31 C-9 30.34 -9 29.68 -9 29 C-10.65 29 -12.3 29 -14 29 C-14.0543251 25.97892098 -14.09382927 22.95883472 -14.125 19.9375 C-14.14175781 19.08994141 -14.15851562 18.24238281 -14.17578125 17.36914062 C-14.21596135 12.16581799 -13.69745815 7.92530179 -12 3 C-5.25 1.875 -5.25 1.875 -3 3 C-3 6.63 -3 10.26 -3 14 C-1.68 14.33 -0.36 14.66 1 15 C0.67 10.05 0.34 5.1 0 0 Z " fill="#92463F" transform="translate(67,115)"/>
<path d="M0 0 C2.74912782 0.65310772 3.59784349 1.09448838 5.12109375 3.50390625 C5.39273803 6.26124174 5.49473396 8.7550422 5.43359375 11.50390625 C5.43842773 12.59058594 5.43842773 12.59058594 5.44335938 13.69921875 C5.40494674 17.48460915 5.26578779 19.28686519 3.12109375 22.50390625 C-0.28112893 23.26851727 -3.46246422 23.1596427 -6.87890625 22.50390625 C-10.50162221 19.22621086 -11.13699352 16.21408937 -11.37890625 11.50390625 C-10.97255346 3.35222303 -8.15190501 -0.20620333 0 0 Z " fill="#CFA497" transform="translate(86.87890625,113.49609375)"/>
<path d="M0 0 C2.4375 0.125 2.4375 0.125 5 1 C7.61811432 5.52546909 7.36718486 10.36156956 7.375 15.4375 C7.39949219 16.27087891 7.42398438 17.10425781 7.44921875 17.96289062 C7.47583889 23.57530354 6.7626711 26.75160226 3 31 C0.25 31.375 0.25 31.375 -2 31 C-4.61811104 26.42302857 -4.33110015 22.2809604 -4.3125 17.125 C-4.33666992 15.79662109 -4.33666992 15.79662109 -4.36132812 14.44140625 C-4.36524087 9.19050534 -3.89572221 5.55984612 -1 1 C-0.67 0.67 -0.34 0.34 0 0 Z " fill="#8D403B" transform="translate(124,117)"/>
<path d="M0 0 C0.90492187 0.02320312 1.80984375 0.04640625 2.7421875 0.0703125 C4.10730469 0.09738281 4.10730469 0.09738281 5.5 0.125 C6.19867188 0.14820312 6.89734375 0.17140625 7.6171875 0.1953125 C10.17773391 6.12499893 11.04262018 10.77009045 10.8671875 17.1953125 C10.86203125 17.95070312 10.856875 18.70609375 10.8515625 19.484375 C10.78324571 24.45442128 10.31055796 29.27461894 9.6171875 34.1953125 C8.9571875 34.1953125 8.2971875 34.1953125 7.6171875 34.1953125 C7.6171875 34.8553125 7.6171875 35.5153125 7.6171875 36.1953125 C4.56025428 37.72377911 1.98734203 37.42773695 -1.3828125 37.1953125 C-4.5678482 35.43516119 -5.21578222 34.69640334 -6.3828125 31.1953125 C-6.61499645 27.42846929 -6.56798477 23.65606186 -6.5703125 19.8828125 C-6.58255859 18.84962891 -6.59480469 17.81644531 -6.60742188 16.75195312 C-6.61743189 11.55008379 -6.61969953 7.0065818 -4.3828125 2.1953125 C-2.3828125 0.1953125 -2.3828125 0.1953125 0 0 Z M0.6171875 2.1953125 C-1.1364689 4.53473594 -1.1364689 4.53473594 -2.3828125 7.1953125 C-2.7128125 7.8553125 -3.0428125 8.5153125 -3.3828125 9.1953125 C-3.62154873 12.48144646 -3.56800264 15.77645833 -3.5703125 19.0703125 C-3.58255859 19.98167969 -3.59480469 20.89304688 -3.60742188 21.83203125 C-3.60935547 22.71246094 -3.61128906 23.59289062 -3.61328125 24.5 C-3.61739014 25.30421387 -3.62149902 26.10842773 -3.62573242 26.93701172 C-3.35871583 29.41932681 -2.62348012 31.04711664 -1.3828125 33.1953125 C0.9467822 33.69772572 0.9467822 33.69772572 3.6171875 33.1953125 C7.98364562 28.24825066 8.20971077 24.12627791 8.0546875 17.6953125 C8.06177734 16.86644531 8.06886719 16.03757813 8.07617188 15.18359375 C8.02372273 10.10812994 7.33190604 6.63103298 4.6171875 2.1953125 C3.2971875 2.1953125 1.9771875 2.1953125 0.6171875 2.1953125 Z " fill="#EBCCC0" transform="translate(123.3828125,114.8046875)"/>
<path d="M0 0 C1.28197266 0.04640625 1.28197266 0.04640625 2.58984375 0.09375 C3.44707031 0.1040625 4.30429687 0.114375 5.1875 0.125 C7.52734375 0.59375 7.52734375 0.59375 9.32421875 1.76953125 C11.01777933 4.33736498 10.82227687 6.23731147 10.71484375 9.28125 C10.68777344 10.27511719 10.66070312 11.26898438 10.6328125 12.29296875 C10.59800781 13.05222656 10.56320313 13.81148437 10.52734375 14.59375 C9.53734375 14.59375 8.54734375 14.59375 7.52734375 14.59375 C7.52734375 11.29375 7.52734375 7.99375 7.52734375 4.59375 C4.55734375 4.59375 1.58734375 4.59375 -1.47265625 4.59375 C-2.41623742 10.18729916 -2.65575238 15.6134673 -2.66015625 21.28125 C-2.67240234 22.12236328 -2.68464844 22.96347656 -2.69726562 23.83007812 C-2.69919922 24.64283203 -2.70113281 25.45558594 -2.703125 26.29296875 C-2.70723389 27.02346436 -2.71134277 27.75395996 -2.71557617 28.5065918 C-2.41698956 31.07203597 -2.04517298 32.520669 -0.47265625 34.59375 C1.50734375 34.92375 3.48734375 35.25375 5.52734375 35.59375 C6.18734375 31.30375 6.84734375 27.01375 7.52734375 22.59375 C8.51734375 22.59375 9.50734375 22.59375 10.52734375 22.59375 C10.60868166 24.50970968 10.66668742 26.42666932 10.71484375 28.34375 C10.76705078 29.94476563 10.76705078 29.94476563 10.8203125 31.578125 C10.49197135 34.95784985 9.99770633 36.28771309 7.52734375 38.59375 C5.44140625 39.16015625 5.44140625 39.16015625 3.15234375 39.15625 C2.02699219 39.18912109 2.02699219 39.18912109 0.87890625 39.22265625 C-1.76612952 38.51526296 -3.61636155 37.59990377 -5.48242188 35.56225586 C-7.90065171 30.75501051 -7.13351449 24.83597816 -7.03515625 19.59375 C-7.04611328 18.32273438 -7.05707031 17.05171875 -7.06835938 15.7421875 C-6.95726808 1.67062362 -6.95726808 1.67062362 0 0 Z " fill="#E3BCB1" transform="translate(56.47265625,113.40625)"/>
<path d="M0 0 C3.63 0 7.26 0 11 0 C14.00559652 5.00932754 14.29341888 8.32723489 14 14 C12.68 14 11.36 14 10 14 C9.67 10.7 9.34 7.4 9 4 C7.02 4 5.04 4 3 4 C0.55067968 9.71508075 0.70233212 15.14851187 0.75 21.25 C0.74226563 22.25546875 0.73453125 23.2609375 0.7265625 24.296875 C0.72914062 25.2559375 0.73171875 26.215 0.734375 27.203125 C0.73663086 28.07614258 0.73888672 28.94916016 0.74121094 29.84863281 C0.80093082 32.21266171 0.80093082 32.21266171 3 34 C6.08347826 34.16681109 6.08347826 34.16681109 9 34 C10.21693876 31.56612247 10.31959896 29.58161154 10.5625 26.875 C10.64628906 25.96492188 10.73007813 25.05484375 10.81640625 24.1171875 C10.87699219 23.41851562 10.93757813 22.71984375 11 22 C11.99 22 12.98 22 14 22 C14.23720212 26.52441078 14.33304173 30.71907028 13.1875 35.125 C9.88475702 37.95592255 6.71892455 37.4664299 2.49609375 37.37109375 C0 37 0 37 -2 35 C-3.46731729 30.1961714 -3.18385741 25.10078354 -3.1875 20.125 C-3.19974609 19.25230469 -3.21199219 18.37960938 -3.22460938 17.48046875 C-3.23643833 12.23630073 -2.70660225 7.96120059 -1 3 C-0.67 2.01 -0.34 1.02 0 0 Z " fill="#EACCBA" transform="translate(99,114)"/>
<path d="M0 0 C2 2 2 2 2.22705078 4.52197266 C2.21657715 5.5588623 2.20610352 6.59575195 2.1953125 7.6640625 C2.18886719 8.78554687 2.18242187 9.90703125 2.17578125 11.0625 C2.15902344 12.238125 2.14226562 13.41375 2.125 14.625 C2.11597656 15.80835938 2.10695312 16.99171875 2.09765625 18.2109375 C2.07402905 21.14071057 2.03815713 24.07038014 2 27 C-3.28 26.34 -8.56 25.68 -14 25 C-14 24.67 -14 24.34 -14 24 C-9.71 24 -5.42 24 -1 24 C-1 21.36 -1 18.72 -1 16 C-3.60508636 16.11391632 -6.20845546 16.24065548 -8.8125 16.375 C-9.55048828 16.4059375 -10.28847656 16.436875 -11.04882812 16.46875 C-14.81893115 16.67346148 -16.79650741 16.86433827 -20 19 C-19.625 17.0625 -19.625 17.0625 -19 15 C-15.81175432 13.40587716 -12.37103338 13.89825265 -8.875 13.9375 C-8.12089844 13.94201172 -7.36679688 13.94652344 -6.58984375 13.95117188 C-4.72652873 13.96296501 -2.86325445 13.98090058 -1 14 C-1.0870005 12.37399059 -1.1951781 10.74910322 -1.3125 9.125 C-1.37050781 8.22007813 -1.42851562 7.31515625 -1.48828125 6.3828125 C-1.7882039 3.63778399 -1.7882039 3.63778399 -5 2 C-7.28648848 1.75892674 -7.28648848 1.75892674 -9.6875 1.875 C-10.89986328 1.90207031 -10.89986328 1.90207031 -12.13671875 1.9296875 C-12.75160156 1.95289062 -13.36648437 1.97609375 -14 2 C-14.33 4.31 -14.66 6.62 -15 9 C-16.32 9.33 -17.64 9.66 -19 10 C-19 7.36 -19 4.72 -19 2 C-18.34 2 -17.68 2 -17 2 C-17 1.01 -17 0.02 -17 -1 C-11.35442732 -2.88185756 -5.26156309 -2.7855334 0 0 Z " fill="#F1D4C6" transform="translate(167,117)"/>
<path d="M0 0 C0.99 0 1.98 0 3 0 C3 10.89 3 21.78 3 33 C12.9 33 22.8 33 33 33 C33 33.99 33 34.98 33 36 C22.11 36 11.22 36 0 36 C0 24.12 0 12.24 0 0 Z " fill="#F3DCD0" transform="translate(138,115)"/>
<path d="M0 0 C0.99 0 1.98 0 3 0 C3.33 21.45 3.66 42.9 4 65 C2.02 65.495 2.02 65.495 0 66 C0 44.22 0 22.44 0 0 Z " fill="#D19086" transform="translate(38,97)"/>
<path d="M0 0 C0.99 0 1.98 0 3 0 C3 7.92 3 15.84 3 24 C7.80282864 23.80269599 7.80282864 23.80269599 12.6027832 23.54956055 C14.42578125 23.51171875 14.42578125 23.51171875 18 24 C21.31741092 27.84398409 21.29187189 31.03817791 21 36 C20.01 36 19.02 36 18 36 C17.855625 34.865625 17.71125 33.73125 17.5625 32.5625 C17.38828522 29.19222799 17.38828522 29.19222799 16 28 C14.35769636 27.8754514 12.70947724 27.82431476 11.0625 27.8125 C10.16660156 27.79832031 9.27070312 27.78414062 8.34765625 27.76953125 C5.80885466 27.76805231 5.80885466 27.76805231 4 30 C3.60235737 31.98821313 3.26224651 33.98944339 3 36 C2.01 36 1.02 36 0 36 C0 24.12 0 12.24 0 0 Z " fill="#E8C9BC" transform="translate(71,115)"/>
<path d="M0 0 C1.16982422 -0.03867188 1.16982422 -0.03867188 2.36328125 -0.078125 C4.6875 0.25 4.6875 0.25 8.6875 3.25 C8.6875 6.55 8.6875 9.85 8.6875 13.25 C2.0875 13.58 -4.5125 13.91 -11.3125 14.25 C-11.6425 14.91 -11.9725 15.57 -12.3125 16.25 C-12.6425 14.93 -12.9725 13.61 -13.3125 12.25 C-10.60533758 11.34761253 -9.07473232 11.13148698 -6.30078125 11.15234375 C-5.16479492 11.15717773 -5.16479492 11.15717773 -4.00585938 11.16210938 C-2.82733398 11.17467773 -2.82733398 11.17467773 -1.625 11.1875 C-0.82771484 11.19201172 -0.03042969 11.19652344 0.79101562 11.20117188 C2.75654257 11.2129415 4.72203085 11.23087652 6.6875 11.25 C5.62104885 9.95366379 5.62104885 9.95366379 3.125 10.1875 C2.320625 10.208125 1.51625 10.22875 0.6875 10.25 C0.6875 9.59 0.6875 8.93 0.6875 8.25 C1.6775 7.92 2.6675 7.59 3.6875 7.25 C2.6975 6.59 1.7075 5.93 0.6875 5.25 C0.6875 4.59 0.6875 3.93 0.6875 3.25 C-0.3025 3.745 -0.3025 3.745 -1.3125 4.25 C-1.97022428 7.27934491 -1.97022428 7.27934491 -2.3125 10.25 C-5.2825 10.25 -8.2525 10.25 -11.3125 10.25 C-11.3125 7.61 -11.3125 4.97 -11.3125 2.25 C-10.6525 2.25 -9.9925 2.25 -9.3125 2.25 C-9.3125 4.56 -9.3125 6.87 -9.3125 9.25 C-8.3225 8.92 -7.3325 8.59 -6.3125 8.25 C-6.168125 7.115625 -6.02375 5.98125 -5.875 4.8125 C-5.10384282 -0.07149547 -4.60385105 0.09041933 0 0 Z " fill="#925149" transform="translate(157.3125,117.75)"/>
<path d="M0 0 C1.32 0 2.64 0 4 0 C4.33 11.88 4.66 23.76 5 36 C16.22 36.33 27.44 36.66 39 37 C39 37.33 39 37.66 39 38 C26.13 38 13.26 38 0 38 C0 38.66 0 39.32 0 40 C-0.66 40 -1.32 40 -2 40 C-2 38.02 -2 36.04 -2 34 C-1.34 34 -0.68 34 0 34 C0 22.78 0 11.56 0 0 Z " fill="#8B4C42" transform="translate(133,115)"/>
<path d="M0 0 C0.85526815 2.94420088 1.09794104 5.49462724 1.02734375 8.5546875 C1.01509766 9.41707031 1.00285156 10.27945313 0.99023438 11.16796875 C0.95522869 12.96492736 0.91620101 14.76181236 0.87304688 16.55859375 C0.81081961 21.47088695 1.05887007 25.38696181 3 30 C6.63 30 10.26 30 14 30 C15.81248985 26.3750203 16.31888915 24.62740416 16.625 20.75 C16.69976562 19.85796875 16.77453125 18.9659375 16.8515625 18.046875 C16.90054688 17.37140625 16.94953125 16.6959375 17 16 C16.01 16 15.02 16 14 16 C14 19.3 14 22.6 14 26 C13.67 26 13.34 26 13 26 C13 22.37 13 18.74 13 15 C14.65 15 16.3 15 18 15 C18.33 18.3 18.66 21.6 19 25 C19.33 17.41 19.66 9.82 20 2 C20.66 1.67 21.32 1.34 22 1 C21.98952637 1.73637695 21.97905273 2.47275391 21.96826172 3.23144531 C21.92666298 6.57092876 21.90066136 9.91035765 21.875 13.25 C21.85824219 14.40886719 21.84148437 15.56773437 21.82421875 16.76171875 C21.81777344 17.87675781 21.81132813 18.99179688 21.8046875 20.140625 C21.79421387 21.16704102 21.78374023 22.19345703 21.77294922 23.25097656 C22.00616465 26.07463872 22.39536338 27.67814445 24 30 C27.04199472 31.29231642 27.04199472 31.29231642 30 32 C30 32.33 30 32.66 30 33 C26.625 33.125 26.625 33.125 23 33 C22.34 32.34 21.68 31.68 21 31 C20.34 31.33 19.68 31.66 19 32 C19 31.01 19 30.02 19 29 C18.01 29 17.02 29 16 29 C16 29.99 16 30.98 16 32 C11.31857213 33.49805692 5.6144166 33.8799475 1 32 C-1.30845181 28.53732229 -1.24636502 27.2044191 -1.23046875 23.125 C-1.22756836 21.40023437 -1.22756836 21.40023437 -1.22460938 19.640625 C-1.21236328 18.43921875 -1.20011719 17.2378125 -1.1875 16 C-1.18685547 14.79859375 -1.18621094 13.5971875 -1.18554688 12.359375 C-1.14045603 3.4213681 -1.14045603 3.4213681 0 0 Z " fill="#A56C62" transform="translate(96,120)"/>
<path d="M0 0 C0.66 0 1.32 0 2 0 C2.03738281 1.16917969 2.07476562 2.33835937 2.11328125 3.54296875 C2.1789628 5.09117675 2.24540939 6.63935242 2.3125 8.1875 C2.33505859 8.95642578 2.35761719 9.72535156 2.38085938 10.51757812 C2.59376547 15.02731623 2.89811317 18.45802854 6 22 C7.32 22 8.64 22 10 22 C12.18994248 18.71508627 12.35277339 17.16904361 12.625 13.3125 C12.69976562 12.31863281 12.77453125 11.32476562 12.8515625 10.30078125 C12.90054688 9.54152344 12.94953125 8.78226563 13 8 C13.99 8 14.98 8 16 8 C16.68902754 19.82830611 16.68902754 19.82830611 14.0625 23.6875 C11.11575563 26.99142551 11.11575563 26.99142551 7.625 27.25 C4 27 4 27 2.125 25.6875 C0.01952752 22.52929128 -0.11994168 19.79037706 -0.09765625 16.11328125 C-0.09443359 15.17548828 -0.09121094 14.23769531 -0.08789062 13.27148438 C-0.07532227 11.80678711 -0.07532227 11.80678711 -0.0625 10.3125 C-0.05798828 9.32443359 -0.05347656 8.33636719 -0.04882812 7.31835938 C-0.03704303 4.87884526 -0.02059011 2.43945311 0 0 Z " fill="#F2C9BA" transform="translate(196,125)"/>
<path d="M0 0 C0.99 0 1.98 0 3 0 C3 1.65 3 3.3 3 5 C4.98 5 6.96 5 9 5 C9 5.66 9 6.32 9 7 C7.02 7 5.04 7 3 7 C3 16.9 3 26.8 3 37 C2.01 37 1.02 37 0 37 C0 27.1 0 17.2 0 7 C-2.31 7 -4.62 7 -7 7 C-7 6.01 -7 5.02 -7 4 C-4.69 4 -2.38 4 0 4 C0 2.68 0 1.36 0 0 Z " fill="#F1C8BD" transform="translate(182,114)"/>
<path d="M0 0 C2.31 0 4.62 0 7 0 C7 1.32 7 2.64 7 4 C5.02 4 3.04 4 1 4 C1.33 4.99 1.66 5.98 2 7 C2.2067346 9.50378571 2.37285101 11.99222628 2.5 14.5 C2.81416846 20.31903211 3.27649801 26.0789542 4.01171875 31.86328125 C4 34 4 34 2 37 C0.02 36.34 -1.96 35.68 -4 35 C-4 24.77 -4 14.54 -4 4 C-5.65 4 -7.3 4 -9 4 C-9 3.67 -9 3.34 -9 3 C-7.02 3 -5.04 3 -3 3 C-3 12.9 -3 22.8 -3 33 C-2.01 33 -1.02 33 0 33 C0 23.1 0 13.2 0 3 C1.98 3 3.96 3 6 3 C6 2.34 6 1.68 6 1 C4.02 1 2.04 1 0 1 C0 0.67 0 0.34 0 0 Z " fill="#A26A5F" transform="translate(185,118)"/>
<path d="M0 0 C1.99954746 -0.04254356 4.00041636 -0.04080783 6 0 C7 1 7 1 7.09765625 3.28515625 C7.08605469 4.20167969 7.07445313 5.11820312 7.0625 6.0625 C7.05347656 6.98160156 7.04445313 7.90070313 7.03515625 8.84765625 C7.02355469 9.55792969 7.01195313 10.26820312 7 11 C8.32 11.33 9.64 11.66 11 12 C8.69 12 6.38 12 4 12 C4 11.01 4 10.02 4 9 C3.01 8.67 2.02 8.34 1 8 C1 7.01 1 6.02 1 5 C-1.08745045 8.13117567 -1.27653996 9.06946224 -1.4140625 12.66796875 C-1.45273438 13.56064453 -1.49140625 14.45332031 -1.53125 15.37304688 C-1.5621875 16.30181641 -1.593125 17.23058594 -1.625 18.1875 C-1.66367188 19.12787109 -1.70234375 20.06824219 -1.7421875 21.03710938 C-1.83643187 23.3578771 -1.92204025 25.67863748 -2 28 C-0.02 27.67 1.96 27.34 4 27 C4 27.66 4 28.32 4 29 C4.99 29 5.98 29 7 29 C6.67 29.99 6.34 30.98 6 32 C0.50751129 32.36616591 0.50751129 32.36616591 -1.67431641 30.79199219 C-3.40261568 28.45576444 -3.38708584 27.03043395 -3.3984375 24.140625 C-3.40230469 23.18929687 -3.40617187 22.23796875 -3.41015625 21.2578125 C-3.39855469 20.26523438 -3.38695313 19.27265625 -3.375 18.25 C-3.38660156 17.27289063 -3.39820312 16.29578125 -3.41015625 15.2890625 C-3.38641079 9.41601777 -2.74928826 5.20764654 0 0 Z " fill="#8F4944" transform="translate(102,117)"/>
<path d="M0 0 C0.02685938 2.14576637 0.04633088 4.29162645 0.0625 6.4375 C0.07410156 7.63246094 0.08570312 8.82742187 0.09765625 10.05859375 C0 13 0 13 -1 14 C-4 14.125 -4 14.125 -7 14 C-8 13 -8 13 -8.09765625 10.27734375 C-8.08605469 9.17519531 -8.07445313 8.07304688 -8.0625 6.9375 C-8.05347656 5.83277344 -8.04445313 4.72804688 -8.03515625 3.58984375 C-8.02355469 2.73519531 -8.01195313 1.88054687 -8 1 C-4.93251126 -0.86240388 -3.40254489 -1.2151946 0 0 Z " fill="#89433E" transform="translate(88,118)"/>
<path d="M0 0 C0.66 0 1.32 0 2 0 C2 11.22 2 22.44 2 34 C1.67 34 1.34 34 1 34 C0.97421875 33.01257813 0.9484375 32.02515625 0.921875 31.0078125 C0.86515625 29.72648437 0.8084375 28.44515625 0.75 27.125 C0.70359375 25.84882813 0.6571875 24.57265625 0.609375 23.2578125 C0.37444944 19.90811895 0.37444944 19.90811895 -2.046875 18.5546875 C-2.69140625 18.37164062 -3.3359375 18.18859375 -4 18 C-4 17.34 -4 16.68 -4 16 C-4.66 16 -5.32 16 -6 16 C-5.67 16.66 -5.34 17.32 -5 18 C-4.92966231 19.87379605 -4.9156978 21.75001102 -4.9375 23.625 C-4.94652344 24.62789062 -4.95554687 25.63078125 -4.96484375 26.6640625 C-4.97644531 27.43492187 -4.98804688 28.20578125 -5 29 C-5.33 28.34 -5.66 27.68 -6 27 C-6.66 26.67 -7.32 26.34 -8 26 C-8 24.35 -8 22.7 -8 21 C-8.66 21.33 -9.32 21.66 -10 22 C-9.505 17.545 -9.505 17.545 -9 13 C-4.69986566 12.80453935 -2.99110319 13.0044484 1 15 C0.67 10.05 0.34 5.1 0 0 Z " fill="#81352C" transform="translate(67,115)"/>
<path d="M0 0 C0.33 0 0.66 0 1 0 C1.06058594 1.18078125 1.12117188 2.3615625 1.18359375 3.578125 C1.26802582 5.1354277 1.35267249 6.69271879 1.4375 8.25 C1.47681641 9.02730469 1.51613281 9.80460938 1.55664062 10.60546875 C1.59853516 11.35957031 1.64042969 12.11367187 1.68359375 12.890625 C1.72025146 13.58188477 1.75690918 14.27314453 1.79467773 14.98535156 C2.00675524 17.06628329 2.44508677 18.98572422 3 21 C7.41522109 19.73025028 7.41522109 19.73025028 11 17 C11 17.66 11 18.32 11 19 C11.66 19 12.32 19 13 19 C13 17.35 13 15.7 13 14 C13.33 14 13.66 14 14 14 C14 16.64 14 19.28 14 22 C13.34 22 12.68 22 12 22 C12 22.66 12 23.32 12 24 C8.94306678 25.52846661 6.37015453 25.23242445 3 25 C0.625 24 0.625 24 -1 22 C-1.62925165 19.29635095 -1.8170661 16.78974201 -2 14 C-1.34 14 -0.68 14 0 14 C0 9.38 0 4.76 0 0 Z " fill="#DDBAAE" transform="translate(119,127)"/>
<path d="M0 0 C0.99 0.33 1.98 0.66 3 1 C3 1.99 3 2.98 3 4 C3.66 4 4.32 4 5 4 C6.32229189 6.64458379 6.09677194 8.67761301 6.0625 11.625 C6.05347656 12.62789062 6.04445312 13.63078125 6.03515625 14.6640625 C6.02355469 15.43492187 6.01195312 16.20578125 6 17 C6.66 17.33 7.32 17.66 8 18 C7.67 19.98 7.34 21.96 7 24 C6.34 23.01 5.68 22.02 5 21 C4.01 21.99 3.02 22.98 2 24 C1.34 23.67 0.68 23.34 0 23 C0.48082031 22.30519531 0.96164063 21.61039063 1.45703125 20.89453125 C3.1938778 17.63629506 3.48614821 15.35210254 3.6875 11.6875 C3.75324219 10.61886719 3.81898438 9.55023438 3.88671875 8.44921875 C3.92410156 7.64097656 3.96148437 6.83273438 4 6 C3.01 6 2.02 6 1 6 C1 9.63 1 13.26 1 17 C0.34 17.33 -0.32 17.66 -1 18 C-1.02684312 15.18743719 -1.04676188 12.37512759 -1.0625 9.5625 C-1.07087891 8.76005859 -1.07925781 7.95761719 -1.08789062 7.13085938 C-1.0965143 5.08704779 -1.0522815 3.04316098 -1 1 C-0.67 0.67 -0.34 0.34 0 0 Z " fill="#944D45" transform="translate(208,127)"/>
<path d="M0 0 C3.63 0 7.26 0 11 0 C14.00559652 5.00932754 14.29341888 8.32723489 14 14 C12.68 14 11.36 14 10 14 C9.67 10.7 9.34 7.4 9 4 C7.02 4 5.04 4 3 4 C2.34 5.98 1.68 7.96 1 10 C0.01 9.34 -0.98 8.68 -2 8 C-1.47731534 5.23723823 -0.89130413 2.6739124 0 0 Z " fill="#DFB7AB" transform="translate(99,114)"/>
<path d="M0 0 C1.93166016 0.01740234 1.93166016 0.01740234 3.90234375 0.03515625 C5.19269531 0.04417969 6.48304688 0.05320313 7.8125 0.0625 C8.81152344 0.07410156 9.81054688 0.08570313 10.83984375 0.09765625 C10.83984375 1.74765625 10.83984375 3.39765625 10.83984375 5.09765625 C5.55984375 5.09765625 0.27984375 5.09765625 -5.16015625 5.09765625 C-3.91599555 0.12101346 -3.91599555 0.12101346 0 0 Z " fill="#864842" transform="translate(154.16015625,133.90234375)"/>
<path d="M0 0 C1.67542976 0.28604898 3.34385343 0.61781233 5 1 C4.67 1.66 4.34 2.32 4 3 C2.68 3 1.36 3 0 3 C-1.55994099 9.98187183 -2.48462048 16.86606248 -3 24 C-2.01 24 -1.02 24 0 24 C0.33 25.32 0.66 26.64 1 28 C0.34 28 -0.32 28 -1 28 C-1 28.66 -1 29.32 -1 30 C-0.01 30 0.98 30 2 30 C2 29.34 2 28.68 2 28 C2.99 27.67 3.98 27.34 5 27 C4.34 28.32 3.68 29.64 3 31 C1.35 31 -0.3 31 -2 31 C-4.61811104 26.42302857 -4.33110015 22.2809604 -4.3125 17.125 C-4.33666992 15.79662109 -4.33666992 15.79662109 -4.36132812 14.44140625 C-4.36524087 9.19050534 -3.89572221 5.55984612 -1 1 C-0.67 0.67 -0.34 0.34 0 0 Z " fill="#955D53" transform="translate(124,117)"/>
<path d="M0 0 C0.33 0 0.66 0 1 0 C1.0093457 0.64549805 1.01869141 1.29099609 1.02832031 1.95605469 C1.08209101 4.88813944 1.1657234 7.81864008 1.25 10.75 C1.26417969 11.76578125 1.27835938 12.7815625 1.29296875 13.828125 C1.40564907 19.56629437 1.40564907 19.56629437 3.75 24.65625 C6.23573065 26.14078358 7.87242778 26.58073105 10.75 26.75 C11.54921875 26.80671875 12.3484375 26.8634375 13.171875 26.921875 C13.77515625 26.94765625 14.3784375 26.9734375 15 27 C12.80466537 29.44813074 11.94224637 30.01711219 8.625 31 C5 31 5 31 2.29296875 29.33203125 C-1.79238662 24.93158198 -0.50732984 18.25963332 -0.3125 12.6875 C-0.28994141 11.46998047 -0.26738281 10.25246094 -0.24414062 8.99804688 C-0.1853053 5.99744518 -0.1031414 2.99935203 0 0 Z " fill="#8F4B42" transform="translate(49,125)"/>
<path d="M0 0 C2.31 0 4.62 0 7 0 C7 0.33 7 0.66 7 1 C6.030625 1.309375 5.06125 1.61875 4.0625 1.9375 C1.15934208 2.69523342 1.15934208 2.69523342 0 4 C-0.07244053 6.01964199 -0.08377188 8.04167124 -0.0625 10.0625 C-0.04896484 11.71958984 -0.04896484 11.71958984 -0.03515625 13.41015625 C-0.02355469 14.26480469 -0.01195313 15.11945313 0 16 C2.31 16.66 4.62 17.32 7 18 C7 18.66 7 19.32 7 20 C5.54257537 20.08096803 4.08387193 20.13917774 2.625 20.1875 C1.81289062 20.22230469 1.00078125 20.25710937 0.1640625 20.29296875 C-0.55007812 20.19628906 -1.26421875 20.09960938 -2 20 C-4.83670471 15.74494293 -4.64925618 11.99776266 -4 7 C-2.91988576 4.34197975 -1.65268013 2.37572768 0 0 Z " fill="#F0C5BE" transform="translate(81,115)"/>
<path d="M0 0 C0.99 0 1.98 0 3 0 C3.68902754 11.82830611 3.68902754 11.82830611 1.0625 15.6875 C-1.88439306 18.99159222 -1.88439306 18.99159222 -5.4375 19.25 C-6.613125 19.1675 -7.78875 19.085 -9 19 C-9.66 18.01 -10.32 17.02 -11 16 C-8.36 16.66 -5.72 17.32 -3 18 C-3 17.34 -3 16.68 -3 16 C-3.99 15.67 -4.98 15.34 -6 15 C-5.01 14.67 -4.02 14.34 -3 14 C-0.81005752 10.71508627 -0.64722661 9.16904361 -0.375 5.3125 C-0.30023438 4.31863281 -0.22546875 3.32476562 -0.1484375 2.30078125 C-0.09945312 1.54152344 -0.05046875 0.78226563 0 0 Z " fill="#DAB1A1" transform="translate(209,133)"/>
<path d="M0 0 C1.32 0.33 2.64 0.66 4 1 C4 5.29 4 9.58 4 14 C-0.62 14 -5.24 14 -10 14 C-10 20.6 -10 27.2 -10 34 C-10.33 34 -10.66 34 -11 34 C-11 27.07 -11 20.14 -11 13 C-6.71 13 -2.42 13 2 13 C1.54177532 9.53058454 1.10868317 6.32604951 0 3 C-0.66 2.67 -1.32 2.34 -2 2 C-1.34 2 -0.68 2 0 2 C0 1.34 0 0.68 0 0 Z " fill="#995A54" transform="translate(210,111)"/>
<path d="M0 0 C0.99 0.33 1.98 0.66 3 1 C2.34 1.66 1.68 2.32 1 3 C1.36438474 4.87678571 1.36438474 4.87678571 2 7 C2.06624507 8.74886981 2.08552595 10.50002748 2.0625 12.25 C2.05347656 13.14203125 2.04445313 14.0340625 2.03515625 14.953125 C2.02355469 15.62859375 2.01195313 16.3040625 2 17 C0.35 17 -1.3 17 -3 17 C-3 14.03 -3 11.06 -3 8 C-2.67 8 -2.34 8 -2 8 C-2 10.31 -2 12.62 -2 15 C-1.01 15 -0.02 15 1 15 C0.49958303 9.13653489 0.49958303 9.13653489 -2 4 C-5.10930941 3.29327794 -5.10930941 3.29327794 -8.625 3.25 C-9.81351562 3.19328125 -11.00203125 3.1365625 -12.2265625 3.078125 C-13.14179687 3.05234375 -14.05703125 3.0265625 -15 3 C-11.57267837 0.71511892 -10.37963387 0.80542105 -6.375 0.9375 C-4.58402787 0.99155821 -2.79167135 1.02042622 -1 1 C-0.67 0.67 -0.34 0.34 0 0 Z " fill="#A46E66" transform="translate(91,136)"/>
<path d="M0 0 C-1.97420135 2.52259061 -2.96745642 2.9929808 -6.1875 3.6875 C-7.5796875 3.8421875 -7.5796875 3.8421875 -9 4 C-9.33 6.31 -9.66 8.62 -10 11 C-11.32 11.33 -12.64 11.66 -14 12 C-14 9.36 -14 6.72 -14 4 C-13.34 4 -12.68 4 -12 4 C-12 3.01 -12 2.02 -12 1 C-8.0186217 -0.3271261 -4.14954773 -0.06915913 0 0 Z " fill="#E1B9A8" transform="translate(162,115)"/>
<path d="M0 0 C0 1.32 0 2.64 0 4 C-3.3 4.66 -6.6 5.32 -10 6 C-10.33 4.02 -10.66 2.04 -11 0 C-6.94952424 -1.35015859 -4.2079832 -0.62084998 0 0 Z " fill="#B8857B" transform="translate(210,109)"/>
<path d="M0 0 C0.33 0 0.66 0 1 0 C1 6.93 1 13.86 1 21 C2.98 20.67 4.96 20.34 7 20 C7 20.66 7 21.32 7 22 C7.99 22 8.98 22 10 22 C9.67 22.99 9.34 23.98 9 25 C3.51534431 25.36564371 3.51534431 25.36564371 1.3190918 23.80737305 C-0.44568103 21.38934357 -0.34454396 19.86870166 -0.29296875 16.89453125 C-0.28330078 15.91162109 -0.27363281 14.92871094 -0.26367188 13.91601562 C-0.23853516 12.89185547 -0.21339844 11.86769531 -0.1875 10.8125 C-0.17396484 9.77673828 -0.16042969 8.74097656 -0.14648438 7.67382812 C-0.11111389 5.11536301 -0.06175544 2.5579422 0 0 Z " fill="#9B635C" transform="translate(99,124)"/>
<path d="M0 0 C0.33 0 0.66 0 1 0 C1.268125 0.969375 1.53625 1.93875 1.8125 2.9375 C2.204375 3.948125 2.59625 4.95875 3 6 C7.66000848 7.55333616 12.5500827 7.34203631 17.43359375 7.5234375 C21.0054532 8.00072869 22.44196885 8.5531876 25 11 C24.37738281 10.84660156 23.75476563 10.69320312 23.11328125 10.53515625 C18.81725228 9.79669205 14.53758048 9.63537838 10.1875 9.4375 C9.30384766 9.39431641 8.42019531 9.35113281 7.50976562 9.30664062 C5.34000377 9.20108464 3.1700209 9.10008929 1 9 C1 9.99 1 10.98 1 12 C0.01 12 -0.98 12 -2 12 C-2 10.68 -2 9.36 -2 8 C-1.34 8 -0.68 8 0 8 C0 5.36 0 2.72 0 0 Z " fill="#A3675F" transform="translate(144,134)"/>
<path d="M0 0 C1.32 0.66 2.64 1.32 4 2 C3.84152588 2.70213623 3.68305176 3.40427246 3.51977539 4.12768555 C2.98109408 7.10447541 2.79208274 9.93483803 2.68359375 12.95703125 C2.64169922 14.06884766 2.59980469 15.18066406 2.55664062 16.32617188 C2.51732422 17.47666016 2.47800781 18.62714844 2.4375 19.8125 C2.39431641 20.98232422 2.35113281 22.15214844 2.30664062 23.35742188 C2.20081721 26.23817031 2.09873175 29.11900123 2 32 C1.67 32 1.34 32 1 32 C0.98018066 31.25838623 0.96036133 30.51677246 0.93994141 29.75268555 C0.84477072 26.39726166 0.73505906 23.04246714 0.625 19.6875 C0.5940625 18.52025391 0.563125 17.35300781 0.53125 16.15039062 C0.49257812 15.03212891 0.45390625 13.91386719 0.4140625 12.76171875 C0.3826416 11.73006592 0.3512207 10.69841309 0.31884766 9.63549805 C0.17325371 6.77156764 0.17325371 6.77156764 -2 4 C-1.34 4 -0.68 4 0 4 C0 2.68 0 1.36 0 0 Z " fill="#A15E57" transform="translate(168,112)"/>
</svg>
