<?xml version="1.0" encoding="UTF-8"?>
<svg version="1.1" xmlns="http://www.w3.org/2000/svg" width="205" height="208">
<path d="M0 0 C67.65 0 135.3 0 205 0 C205 68.64 205 137.28 205 208 C137.35 208 69.7 208 0 208 C0 139.36 0 70.72 0 0 Z " fill="#548CA7" transform="translate(0,0)"/>
<path d="M0 0 C67.65 0 135.3 0 205 0 C205 28.05 205 56.1 205 85 C201 83 201 83 199.5625 79.6875 C199 76 199 76 200.375 73.0625 C200.91125 72.381875 201.4475 71.70125 202 71 C200.35 70.67 198.7 70.34 197 70 C196.99413376 69.42228348 196.98826752 68.84456696 196.98222351 68.24934387 C196.91823646 62.23060537 196.83380307 56.21239895 196.73754883 50.1940918 C196.70431649 47.9487205 196.67627931 45.703266 196.65356445 43.45776367 C196.61998798 40.22799257 196.56766927 36.99898273 196.51171875 33.76953125 C196.50213387 32.26613945 196.50213387 32.26613945 196.49235535 30.7323761 C196.38547027 23.85213309 196.38547027 23.85213309 193 18 C189.85337167 15.15626976 187.79949957 14.61681658 183.58886719 14.56762695 C182.50804871 14.54783279 181.42723022 14.52803864 180.31365967 14.50764465 C178.57285126 14.49805977 178.57285126 14.49805977 176.796875 14.48828125 C175.60394836 14.47033005 174.41102173 14.45237885 173.1819458 14.43388367 C169.37133317 14.37969629 165.56084641 14.3458569 161.75 14.3125 C159.16664912 14.27933449 156.58331487 14.24484555 154 14.20898438 C147.66677953 14.12396478 141.33354294 14.05565042 135 14 C134.01 11.525 134.01 11.525 133 9 C131.05925139 9.27617533 131.05925139 9.27617533 129 10 C128.34 10.99 127.68 11.98 127 13 C125.35 12.67 123.7 12.34 122 12 C121.505 10.02 121.505 10.02 121 8 C120.34 8.66 119.68 9.32 119 10 C116.34462628 10.56520003 113.70855287 10.73788198 111 11 C110.01 9.02 110.01 9.02 109 7 C108.01 7 107.02 7 106 7 C105.690625 5.7934375 105.690625 5.7934375 105.375 4.5625 C104.694375 3.2940625 104.694375 3.2940625 104 2 C100.94727535 1.10169161 100.94727535 1.10169161 98 1 C97.67 2.65 97.34 4.3 97 6 C92.71 6 88.42 6 84 6 C83.67 6.99 83.34 7.98 83 9 C81.68 9 80.36 9 79 9 C79 9.66 79 10.32 79 11 C77.02 10.34 75.04 9.68 73 9 C72.01 10.65 71.02 12.3 70 14 C68.68 13.67 67.36 13.34 66 13 C66 12.01 66 11.02 66 10 C65.31115723 10.97876099 65.31115723 10.97876099 64.60839844 11.97729492 C60.67730379 15.02569619 57.10186169 14.47264993 52.265625 14.36328125 C50.30989573 14.36314677 48.35416627 14.3638235 46.3984375 14.36523438 C43.32612982 14.34439603 40.25462117 14.31257246 37.18261719 14.2644043 C34.20957367 14.22541121 31.23885862 14.22955672 28.265625 14.23828125 C27.35701721 14.21147781 26.44840942 14.18467438 25.51226807 14.15705872 C19.53180372 14.2024347 15.77263912 15.51752149 11.48675537 19.79072571 C8.70019694 23.93146871 8.90498169 28.11060575 9 32.96484375 C8.98912354 33.99815323 8.97824707 35.03146271 8.96704102 36.09608459 C8.94096634 39.37762938 8.96967628 42.65604017 9 45.9375 C8.991905 48.16993796 8.98022494 50.40236598 8.96484375 52.63476562 C8.93505309 58.09041294 8.95016479 63.54452992 9 69 C7.02 69.495 7.02 69.495 5 70 C5.10699219 70.74765625 5.21398437 71.4953125 5.32421875 72.265625 C5.44410156 73.25046875 5.56398438 74.2353125 5.6875 75.25 C5.81511719 76.22453125 5.94273437 77.1990625 6.07421875 78.203125 C5.98668788 81.50165663 5.31143311 82.69405723 3 85 C2.34 85 1.68 85 1 85 C1 85.99 1 86.98 1 88 C1.99 88 2.98 88 4 88 C4.25 90.25 4.25 90.25 4 93 C2.68 94.32 1.36 95.64 0 97 C0 64.99 0 32.98 0 0 Z " fill="#FBFDFD" transform="translate(0,0)"/>
<path d="M0 0 C3.95117188 3.73242188 3.95117188 3.73242188 4.390625 6.140625 C4.26041667 8.09375 4.13020833 10.046875 4 12 C5.0828125 12.3403125 5.0828125 12.3403125 6.1875 12.6875 C9.52439237 14.24471644 11.44948006 16.38054709 14 19 C14.66 19 15.32 19 16 19 C16.268125 19.804375 16.53625 20.60875 16.8125 21.4375 C17.204375 22.283125 17.59625 23.12875 18 24 C18.99 24.33 19.98 24.66 21 25 C21 24.34 21 23.68 21 23 C22.0725 22.87625 23.145 22.7525 24.25 22.625 C27.37863615 22.10356064 29.33480424 21.59911746 32 20 C32 19.01 32 18.02 32 17 C33.32 17.33 34.64 17.66 36 18 C36 18.99 36 19.98 36 21 C36.60328125 20.77183594 37.2065625 20.54367188 37.828125 20.30859375 C38.62734375 20.02113281 39.4265625 19.73367187 40.25 19.4375 C41.03890625 19.14746094 41.8278125 18.85742188 42.640625 18.55859375 C45.19103452 17.95477163 46.55322229 18.1526068 49 19 C49 19.66 49 20.32 49 21 C50.65 21.33 52.3 21.66 54 22 C54.66 24.97 55.32 27.94 56 31 C59.40562852 31.77842938 62.50765756 32.09978121 66 32 C66.67408308 33.26691507 67.33900497 34.53870749 68 35.8125 C68.37125 36.52019531 68.7425 37.22789062 69.125 37.95703125 C70 40 70 40 70 43 C71.485 43.495 71.485 43.495 73 44 C77.39766935 50.59650402 76.17384069 58.48035889 75 66 C74.34 66.99 73.68 67.98 73 69 C70.16690063 69.38768005 70.16690063 69.38768005 66.50244141 69.40405273 C65.83557816 69.41091599 65.1687149 69.41777924 64.48164368 69.42485046 C62.27140156 69.44319048 60.06186458 69.43927037 57.8515625 69.43359375 C56.31700407 69.43815292 54.78244768 69.4434577 53.24789429 69.44947815 C50.02813435 69.45842394 46.80862223 69.45597057 43.58886719 69.44604492 C39.46370463 69.43456723 35.3393996 69.45473984 31.21434975 69.48396206 C28.0435747 69.50231716 24.87300525 69.50203281 21.7021904 69.49632454 C20.18155084 69.49617116 18.66089749 69.50222912 17.14030838 69.51461601 C15.01177677 69.52950818 12.88482994 69.51886398 10.75634766 69.50170898 C9.54548492 69.50154282 8.33462219 69.50137665 7.08706665 69.50120544 C4 69 4 69 1.60610962 67.36994934 C-0.49994739 64.26228573 -0.483104 62.3204166 -0.45410156 58.57910156 C-0.45379944 57.27805481 -0.45349731 55.97700806 -0.45318604 54.63653564 C-0.43276086 53.22122585 -0.4118969 51.80592232 -0.390625 50.390625 C-0.38316145 48.93903381 -0.37746905 47.48743252 -0.37347412 46.03582764 C-0.35822643 42.22153742 -0.31895309 38.40785979 -0.2746582 34.59381104 C-0.23368623 30.69934373 -0.21545906 26.80477711 -0.1953125 22.91015625 C-0.15245713 15.27315871 -0.08421739 7.6366653 0 0 Z " fill="#FDFEFE" transform="translate(18,128)"/>
<path d="M0 0 C0.04631753 8.4231212 0.08186618 16.84618929 0.10362434 25.26940632 C0.11406657 29.18054512 0.12823372 33.09159686 0.15087891 37.00268555 C0.17259173 40.77631169 0.18456532 44.54985404 0.18975449 48.32353783 C0.19345306 49.76406359 0.20067536 51.20458471 0.21146011 52.64507484 C0.22595347 54.66088014 0.22681674 56.67676956 0.22705078 58.69262695 C0.231492 59.84068314 0.23593323 60.98873932 0.24050903 62.17158508 C0 65 0 65 -2 68 C-5.23124145 69.07708048 -7.60109485 69.13981493 -11.00024414 69.16113281 C-12.85215111 69.17554413 -12.85215111 69.17554413 -14.74147034 69.19024658 C-16.08936376 69.19509293 -17.43725933 69.19937216 -18.78515625 69.203125 C-20.16613263 69.20887737 -21.54710899 69.21463509 -22.92808533 69.22039795 C-25.82063163 69.23089462 -28.71315023 69.23674681 -31.60571289 69.24023438 C-35.31722993 69.24573337 -39.02838274 69.26979633 -42.73978519 69.29820633 C-45.59046007 69.31679634 -48.44104627 69.32203622 -51.29177666 69.32357025 C-52.66056764 69.32660277 -54.02935684 69.33465147 -55.39808846 69.34775543 C-57.30836906 69.36474696 -59.21879989 69.36110091 -61.12915039 69.35644531 C-62.21708389 69.36009094 -63.3050174 69.36373657 -64.42591858 69.36749268 C-65.27536545 69.24622009 -66.12481232 69.12494751 -67 69 C-70.13147544 64.30278684 -69.19758653 59.50607808 -69 54 C-68.98195313 53.02546875 -68.96390625 52.0509375 -68.9453125 51.046875 C-68.64928819 44.81295126 -67.5799213 39.53145653 -63 35 C-59.6875 34 -59.6875 34 -57 34 C-56.87044922 33.00419922 -56.87044922 33.00419922 -56.73828125 31.98828125 C-56.02950153 27.5340234 -55.38706331 24.54833968 -52.75 20.8125 C-50 19 -50 19 -47.1875 19.1875 C-46.135625 19.455625 -45.08375 19.72375 -44 20 C-41.32559683 20.10639579 -38.67781072 20.04616915 -36 20 C-35.505 18.515 -35.505 18.515 -35 17 C-34.34 17 -33.68 17 -33 17 C-32.01 18.98 -31.02 20.96 -30 23 C-28.68 23 -27.36 23 -26 23 C-26 23.66 -26 24.32 -26 25 C-25.34 25 -24.68 25 -24 25 C-24 24.01 -24 23.02 -24 22 C-23.34 22 -22.68 22 -22 22 C-22 22.66 -22 23.32 -22 24 C-21.01 23.67 -20.02 23.34 -19 23 C-18.505 21.515 -18.505 21.515 -18 20 C-14.2750734 17.37064005 -10.1894842 15.73903118 -6 14 C-5.34 13.67 -4.68 13.34 -4 13 C-4.03480469 12.31292969 -4.06960937 11.62585938 -4.10546875 10.91796875 C-4.13253906 10.01691406 -4.15960938 9.11585938 -4.1875 8.1875 C-4.23970703 6.84751953 -4.23970703 6.84751953 -4.29296875 5.48046875 C-4 3 -4 3 -2.55078125 1.17578125 C-1 0 -1 0 0 0 Z " fill="#FDFEFE" transform="translate(188,128)"/>
<path d="M0 0 C0 39.6 0 79.2 0 120 C-67.65 120 -135.3 120 -205 120 C-205 84.36 -205 48.72 -205 12 C-203.68 12 -202.36 12 -201 12 C-201 17.61 -201 23.22 -201 29 C-200.34 29 -199.68 29 -199 29 C-199 28.34 -199 27.68 -199 27 C-198.01 27 -197.02 27 -196 27 C-195.99635437 28.0014505 -195.99270874 29.002901 -195.98895264 30.03469849 C-195.95198233 39.48078761 -195.89418741 48.92655135 -195.81609726 58.37239265 C-195.77661854 63.22841858 -195.74443199 68.08426307 -195.72900391 72.94042969 C-195.71383994 77.62852479 -195.679399 82.31612107 -195.63169098 87.00399399 C-195.6168745 88.79086848 -195.60895883 90.57781419 -195.60811615 92.36474991 C-195.6057455 94.87147201 -195.57865949 97.37681671 -195.54589844 99.88330078 C-195.5509288 100.61913895 -195.55595917 101.35497711 -195.56114197 102.1131134 C-195.45870853 107.19174312 -194.21116593 110.09642329 -191 114 C-187.33582856 116.44278096 -185.58831877 116.25131964 -181.21902466 116.25396729 C-180.52578531 116.25708727 -179.83254596 116.26020725 -179.11829937 116.26342177 C-176.78988061 116.27141404 -174.46172159 116.26507339 -172.13330078 116.25878906 C-170.46611376 116.26149843 -168.79892793 116.26505906 -167.13174438 116.26940918 C-162.59864329 116.2785433 -158.06563303 116.27498435 -153.53253031 116.26865101 C-148.79161232 116.26359463 -144.05070222 116.26828161 -139.30978394 116.27142334 C-131.34534303 116.27506475 -123.38093919 116.27026004 -115.41650391 116.26074219 C-106.20805898 116.24986477 -96.99970266 116.25337733 -87.79125988 116.264395 C-79.88884349 116.2734718 -71.98645377 116.274751 -64.08403385 116.26951766 C-59.36276159 116.26639917 -54.64153097 116.26598518 -49.92026138 116.27259064 C-45.47976665 116.2783689 -41.03938606 116.27435836 -36.59890366 116.26280212 C-34.96909525 116.2601578 -33.33927724 116.26091676 -31.70947266 116.26532745 C-29.48449968 116.27079352 -27.25989232 116.26393599 -25.03494263 116.25396729 C-23.16724307 116.25283621 -23.16724307 116.25283621 -21.26181221 116.25168228 C-16.44392311 115.8799327 -13.89753569 115.03798828 -10.72161865 111.36508179 C-8.7451118 107.50179464 -8.42397272 104.39790164 -8.45410156 100.15869141 C-8.43859505 99.01620941 -8.43859505 99.01620941 -8.42277527 97.85064697 C-8.39344288 95.3507339 -8.39185018 92.85163382 -8.390625 90.3515625 C-8.37563682 88.61134303 -8.35890833 86.87113774 -8.34051514 85.13095093 C-8.29690074 80.56401908 -8.2768557 75.99727911 -8.26177979 71.43017578 C-8.24218734 66.76453331 -8.20021973 62.0990974 -8.16015625 57.43359375 C-8.08491824 48.28912631 -8.034588 39.14470525 -8 30 C-7.01 29.67 -6.02 29.34 -5 29 C-4.34 23.72 -3.68 18.44 -3 13 C-2.34 13 -1.68 13 -1 13 C-1.33 11.7625 -1.66 10.525 -2 9.25 C-2.79891159 6.25408155 -3 4.19892281 -3 1 C-1 0 -1 0 0 0 Z " fill="#FEFEFE" transform="translate(205,88)"/>
<path d="M0 0 C5.21440513 -0.07412765 10.42850393 -0.12859104 15.64331055 -0.16479492 C17.41745343 -0.17988641 19.19155898 -0.20036191 20.96557617 -0.22631836 C23.51490487 -0.26268641 26.06374059 -0.27972238 28.61328125 -0.29296875 C29.40712723 -0.30845261 30.20097321 -0.32393646 31.01887512 -0.33988953 C36.38679479 -0.34153202 36.38679479 -0.34153202 39.00585938 1.1171875 C40.48912019 3.92634944 40.33589319 6.25586802 40.29296875 9.41796875 C40.2784668 11.29838867 40.2784668 11.29838867 40.26367188 13.21679688 C40.23853516 14.52712891 40.21339844 15.83746094 40.1875 17.1875 C40.17244967 18.52277163 40.15876187 19.85805937 40.14648438 21.19335938 C40.11107694 24.46264576 40.0616889 27.73112093 40 31 C39.01 30.67 38.02 30.34 37 30 C36.01 30.33 35.02 30.66 34 31 C34 30.34 34 29.68 34 29 C33.01 28.67 32.02 28.34 31 28 C29.15006148 25.15587683 28.67015522 22.59509249 28.375 19.25 C28.30023438 18.45078125 28.22546875 17.6515625 28.1484375 16.828125 C28.09945312 16.22484375 28.05046875 15.6215625 28 15 C26.68 15 25.36 15 24 15 C24.020625 14.05125 24.04125 13.1025 24.0625 12.125 C24.22551826 9.09333717 24.22551826 9.09333717 23 7 C21.906875 7.185625 20.81375 7.37125 19.6875 7.5625 C16 8 16 8 13 7 C12.34 6.01 11.68 5.02 11 4 C10.67 4.66 10.34 5.32 10 6 C7.03 5.505 7.03 5.505 4 5 C4 4.34 4 3.68 4 3 C2.68 3 1.36 3 0 3 C0 2.01 0 1.02 0 0 Z " fill="#FAFBFC" transform="translate(148,22)"/>
<path d="M0 0 C1.12067871 0.01047363 2.24135742 0.02094727 3.39599609 0.03173828 C5.21357422 0.04140625 5.21357422 0.04140625 7.06787109 0.05126953 C8.33888672 0.06802734 9.60990234 0.08478516 10.91943359 0.10205078 C12.19818359 0.11107422 13.47693359 0.12009766 14.79443359 0.12939453 C17.96128526 0.15302775 21.12776783 0.18597449 24.29443359 0.22705078 C23.96443359 1.87705078 23.63443359 3.52705078 23.29443359 5.22705078 C22.63443359 5.22705078 21.97443359 5.22705078 21.29443359 5.22705078 C20.96443359 6.87705078 20.63443359 8.52705078 20.29443359 10.22705078 C17.65443359 10.22705078 15.01443359 10.22705078 12.29443359 10.22705078 C12.19130859 10.86642578 12.08818359 11.50580078 11.98193359 12.16455078 C11.75505859 12.84517578 11.52818359 13.52580078 11.29443359 14.22705078 C10.30443359 14.55705078 9.31443359 14.88705078 8.29443359 15.22705078 C7.36062398 19.75845731 7.36062398 19.75845731 8.29443359 24.22705078 C7.30443359 24.55705078 6.31443359 24.88705078 5.29443359 25.22705078 C5.29443359 26.87705078 5.29443359 28.52705078 5.29443359 30.22705078 C3.64443359 30.88705078 1.99443359 31.54705078 0.29443359 32.22705078 C-0.03556641 30.90705078 -0.36556641 29.58705078 -0.70556641 28.22705078 C-2.02556641 28.22705078 -3.34556641 28.22705078 -4.70556641 28.22705078 C-4.76340482 23.93544031 -4.79910761 19.64392933 -4.83056641 15.35205078 C-4.84732422 14.12873047 -4.86408203 12.90541016 -4.88134766 11.64501953 C-4.88779297 10.47841797 -4.89423828 9.31181641 -4.90087891 8.10986328 C-4.91135254 7.0310791 -4.92182617 5.95229492 -4.93261719 4.84082031 C-4.61044128 1.13198668 -3.6942183 0.31001832 0 0 Z " fill="#F7FBFB" transform="translate(22.70556640625,21.77294921875)"/>
<path d="M0 0 C0.33 0.66 0.66 1.32 1 2 C1.99 2 2.98 2 4 2 C4.25 4.25 4.25 4.25 4 7 C2 9.3125 2 9.3125 0 11 C0 7.37 0 3.74 0 0 Z " fill="#EFF5F7" transform="translate(0,86)"/>
<path d="M0 0 C0 3.96 0 7.92 0 12 C-0.33 12 -0.66 12 -1 12 C-2.19287411 8.12315913 -3 5.08378077 -3 1 C-1 0 -1 0 0 0 Z " fill="#EDF2F5" transform="translate(205,88)"/>
</svg>
