<svg width="150" height="45" viewBox="0 0 150 45" fill="none" xmlns="http://www.w3.org/2000/svg">
<path d="M40.9027 16.9171C40.9027 16.7887 40.7615 16.7887 40.6202 16.697C40.4967 16.6053 40.4437 16.6603 40.3025 16.6236C40.1083 16.5686 40.1613 16.4952 40.1436 16.2935C40.1259 16.1651 40.0906 16.055 40.0377 15.9266C39.9494 15.7065 39.7729 15.4314 39.8788 15.2113C40.0377 14.9178 40.5849 14.6977 40.4084 14.2759C40.3378 14.0924 40.1436 14.1475 40.0024 14.0741C39.8611 13.9824 39.7905 13.8723 39.6317 13.8907C39.5257 13.909 39.4375 13.9824 39.3492 14.0191V5.15994C39.3492 3.80264 38.2724 2.72046 36.9484 2.72046H27.0272C26.9742 2.62875 26.9742 2.53705 26.9566 2.39031C26.9213 2.20689 26.886 2.04182 26.7801 1.8584C26.6565 1.6383 26.6388 1.67497 26.4446 1.71166C26.3034 1.73 26.1445 1.58327 26.0386 1.60161C25.9327 1.61995 25.7385 1.89508 25.6855 2.00514C25.5796 2.18855 25.4561 2.53705 25.2619 2.70213H24.8735C24.8382 2.6471 24.8558 2.55539 24.7852 2.48202C24.7146 2.40865 24.5381 2.28027 24.5028 2.22524C24.4498 2.11519 24.644 1.12473 24.1674 1.39986C23.9908 1.50991 23.9908 1.78503 23.7966 1.89508C23.726 1.93176 23.5495 1.96844 23.4965 1.98679C23.4612 2.00513 23.0376 1.95011 23.0199 1.95011C22.914 2.00514 22.7904 2.13353 22.7021 2.22524C22.5786 2.39032 22.2255 2.28026 22.1372 2.06016C22.1019 1.95011 21.9784 1.95011 21.9254 1.84005C21.8724 1.73 21.8724 1.61996 21.7842 1.54659C21.59 1.39985 21.4135 1.52824 21.2899 1.2898C21.2369 1.17975 21.2193 1.08803 21.131 0.977983C21.0251 0.84959 20.9898 0.849594 20.9545 0.684517C20.9192 0.501098 20.9368 0.20763 20.7779 0.079237C20.6191 -0.0674982 20.3719 0.0242113 20.1954 0.079237C20.0365 0.134263 19.5952 0.0792325 19.5069 0.280993C19.4716 0.354361 19.5422 0.482754 19.5245 0.556122C19.5069 0.666173 19.4186 0.776227 19.348 0.867936C19.2951 0.941304 19.2597 1.10638 19.1891 1.14306C19.1185 1.16141 19.0479 1.05135 18.9949 1.01467C18.8714 0.959643 18.9067 0.941306 18.8008 0.996332C18.7301 1.01467 18.7478 1.12472 18.6772 1.1614C18.536 1.21643 18.2888 1.14306 18.1476 1.10638C17.9004 1.05135 17.9534 1.10638 17.7239 1.1614C17.5121 1.21643 17.5474 1.05135 17.3708 0.959645C17.1943 0.867936 16.8766 0.996329 16.7706 1.14306C16.6471 1.30814 16.6471 1.54658 16.5235 1.71166C16.4529 1.82171 16.3999 1.87674 16.2587 1.8584C16.1528 1.84006 16.1351 1.73 16.0645 1.69332C15.9233 1.6383 15.835 1.73 15.7821 1.93176C15.7644 2.00513 15.835 2.04182 15.7467 2.13353C15.6938 2.2069 15.5702 2.2069 15.4819 2.18855C15.3937 2.15187 15.2701 1.89508 15.1995 1.82172C15.0053 1.58327 14.7935 1.21644 14.4581 1.49156C14.0873 1.78504 14.5816 2.18855 14.2992 2.427C14.1403 2.55539 14.0167 2.51871 13.8578 2.68379C13.8402 2.70213 13.8225 2.70213 13.8049 2.70213H13.7696C13.5754 2.66544 13.1694 2.28026 13.1341 2.11518C13.1164 2.02347 13.0458 1.85839 12.9399 1.89508C12.781 1.93176 12.5691 2.40865 12.4632 2.51871C12.3926 2.59207 12.322 2.6471 12.2514 2.70213H4.23679C2.91279 2.70213 1.83594 3.80264 1.83594 5.14159V13.8357C1.73002 13.8173 1.6241 13.7623 1.50053 13.799C1.34165 13.8357 1.3593 13.8907 1.20042 13.8723C1.16512 13.8723 1.0945 13.799 1.04154 13.8173C1.02389 13.8173 0.75909 14.1108 0.723784 14.1475C0.547251 14.4226 0.829704 14.8078 1.00624 15.0095C1.07685 15.1012 1.20042 15.1196 1.25338 15.2296C1.27104 15.2847 1.27104 15.4864 1.27104 15.5598C1.25338 15.7799 1.11216 15.8899 1.07685 16.0917C1.02389 16.2935 1.02389 16.4035 0.882665 16.5686C0.812052 16.6603 0.529598 16.8437 0.476639 16.9171C0.388372 17.0271 0.247146 17.0271 0.176533 17.1005C0.123573 17.1555 0.0353066 17.2656 0.0882665 17.3756C0.123573 17.4673 0.088267 17.4673 0.141227 17.5591C0.21184 17.6508 0.264798 17.7058 0.370718 17.6875C0.441331 17.6875 0.600212 17.6141 0.653171 17.6141C0.882664 17.5957 0.776744 17.8525 0.81205 18.0176C0.829703 18.1277 0.882664 18.3294 0.829704 18.4395C0.776745 18.5312 0.635519 18.5312 0.582559 18.6045C0.47664 18.7329 0.511945 18.953 0.388372 19.0631C0.335412 19.1181 0.264799 19.0264 0.176533 19.1548C0.15888 19.1915 0.15888 19.2832 0.141227 19.3382C0.10592 19.4483 0 19.54 0 19.65C0 19.7051 0.0706132 19.9985 0.0882665 20.0352C0.176533 20.2553 0.370718 19.9618 0.511945 19.9985C0.759091 20.0536 0.670824 20.347 0.723784 20.5304C0.75909 20.6222 0.829706 20.6955 0.847359 20.7872C0.865012 20.8606 0.865012 21.0257 0.882665 21.1174C0.900318 21.2641 0.865011 21.3375 0.865011 21.4659C0.865011 21.5576 0.935624 21.631 0.917971 21.741C0.917971 21.8694 0.706132 21.9244 0.706132 22.0161C0.706132 22.0895 0.688479 22.2729 0.706132 22.3463C0.794398 22.548 0.900318 22.6948 0.829704 22.8965C0.759091 23.0616 0.688479 23.0433 0.759092 23.2084C0.794399 23.2634 0.829705 23.3551 0.882665 23.3734C1.11216 23.4285 1.16512 23.3001 1.18277 23.2084C1.25338 22.7865 1.74768 22.9149 1.8536 23.2634C1.8889 23.3918 1.8536 23.777 1.8536 23.777C1.78298 23.8503 1.74768 23.8687 1.76533 23.9971C1.76533 24.0521 1.81829 24.1071 1.8536 24.1621V38.5605C1.8536 39.9178 2.93045 41 4.25444 41H36.9307C38.2547 41 39.3316 39.8995 39.3316 38.5605V23.5202C39.4198 23.5018 39.5257 23.5018 39.5963 23.5018C39.7552 23.5018 39.8611 23.6302 40.02 23.4285C40.1436 23.2817 40.073 23.19 40.1083 23.0066C40.1436 22.8599 40.2142 22.7498 40.2142 22.6031C40.2142 22.4197 40.1436 22.3279 40.2142 22.1445C40.2848 21.9978 40.3378 22.0161 40.3201 21.8327C40.3025 21.6676 40.1789 21.5759 40.1613 21.4292C40.1259 21.2274 40.2672 21.1724 40.3554 21.0624C40.4261 20.9706 40.4437 20.989 40.4614 20.8239C40.479 20.6955 40.3907 20.4204 40.4614 20.292C40.5496 20.1269 40.7968 20.1453 40.885 19.9618C40.9557 19.8151 40.8674 19.5216 40.8144 19.3566C40.6909 19.0264 40.5496 18.7513 40.3907 18.4211C40.2848 18.201 40.2319 17.8892 40.4614 17.8342C40.532 17.8158 40.5849 17.9259 40.6555 17.8709C40.7262 17.8342 40.9027 17.7241 40.938 17.6508C40.991 17.5591 40.9557 17.4123 40.9733 17.3206C41.0616 17.1372 40.9027 17.0455 40.9027 16.9171ZM3.54831 5.60014C3.54831 4.92149 4.07791 4.37123 4.74874 4.37123H9.40921C9.39155 4.40792 9.35625 4.4446 9.35625 4.4446C9.25033 4.573 9.19737 4.70139 9.1091 4.84813C8.98553 5.04989 9.12675 5.08657 9.07379 5.28833C9.03849 5.4534 8.86196 5.43507 8.77369 5.54512C8.66777 5.67351 8.73838 5.72854 8.72073 5.85693C8.70308 5.98533 8.59716 6.31547 8.43828 6.33382C8.29705 6.33382 8.35001 6.20542 8.3147 6.11371C8.20878 5.93029 8.24409 6.04035 8.0499 6.07704C7.94398 6.09538 7.7851 6.05869 7.71449 6.05869C7.55561 6.05869 7.37908 6.11372 7.20255 6.07704C7.04367 6.0587 7.00836 6.02201 6.90244 6.09537C6.86713 6.11372 6.86713 6.18709 6.83183 6.22377C6.77887 6.26045 6.67295 6.22377 6.61999 6.26046C6.4258 6.38885 6.58468 6.46222 6.65529 6.62729C6.6906 6.719 6.76121 6.92076 6.74356 7.01247C6.74356 7.04915 6.6906 7.19588 6.67295 7.21423C6.63764 7.25091 6.67295 7.21423 6.56703 7.23257C6.40815 7.26926 6.30223 7.26925 6.17865 7.34262C6.03743 7.41599 6.05508 7.45267 6.00212 7.61775C5.93151 7.9479 5.73732 8.11299 5.71967 8.46148C5.70201 8.865 6.05508 8.6449 6.161 8.92003C6.26692 9.19516 5.84324 9.03008 5.77263 9.06676C5.66671 9.12179 5.64906 9.3052 5.52548 9.36023C5.40191 9.4336 5.3666 9.34189 5.29599 9.48862C5.27834 9.50697 5.27834 9.6537 5.27834 9.69038C5.26068 9.98385 5.52548 10.0022 5.50783 10.259C5.49018 10.5708 5.40191 10.4241 5.19007 10.5158C4.99588 10.5891 4.99588 10.7359 4.81935 10.6992C4.69578 10.6808 4.69578 10.4974 4.69578 10.4607C4.69578 10.3874 4.5369 10.3874 4.50159 10.3323C4.46628 10.2773 4.48394 10.1306 4.44863 10.0756C4.32506 9.76375 3.88373 10.0756 3.67189 10.0389C3.65423 10.0389 3.61893 10.0389 3.60127 10.0389V5.60014H3.54831ZM18.8008 36.7997C18.7831 37.0748 18.6419 37.3316 18.6242 37.6068C18.5889 37.9186 18.6242 38.2304 18.6066 38.5238C18.5889 38.7073 18.5536 38.8173 18.4477 38.964C18.3947 39.0557 18.2712 39.1658 18.2359 39.2759C18.2359 39.2942 18.2359 39.3309 18.2359 39.3676H4.78404C4.11322 39.3676 3.58362 38.8173 3.58362 38.1386V25.2076C3.60127 25.2076 3.63658 25.226 3.65423 25.2443C3.72485 25.3177 3.65423 25.5011 3.68954 25.5928C3.72484 25.6845 3.77781 25.7212 3.83077 25.7946C3.97199 25.9596 4.07791 26.1247 4.20149 26.2898C4.32506 26.4732 4.60751 26.73 4.43098 26.8951C4.2721 27.0602 4.23679 27.0602 4.20149 27.372C4.16618 27.5921 4.04261 27.6654 4.14853 27.8672C4.23679 28.0506 4.25445 27.9773 4.41332 28.069C4.5369 28.1423 4.74874 28.3258 4.88996 28.2524C5.1018 28.1423 5.22538 28.3074 5.3666 28.5092C5.49017 28.7109 5.6314 28.8577 5.75497 29.0411C5.86089 29.1878 5.98447 29.4813 6.17865 29.518C6.40815 29.573 6.33753 29.3346 6.56703 29.3896C6.84948 29.4629 6.61999 29.7931 6.77887 30.0132C6.84948 30.1049 6.9554 30.2333 7.00836 30.3067C7.11428 30.4351 7.37908 30.7285 7.5203 30.7102C7.57326 30.7102 7.62622 30.6001 7.67918 30.5635C7.71449 30.5451 7.80276 30.5818 7.82041 30.5635C8.03225 30.38 7.71449 30.1966 7.94398 30.1233C8.0146 30.1049 8.19113 30.1416 8.2794 30.1233C8.43828 30.1049 8.56185 30.0682 8.72073 30.1416C8.93257 30.2333 8.93257 30.3617 9.12675 30.2333C9.40921 30.0499 9.47982 29.7381 9.76227 29.5547C9.85054 29.4996 9.9035 29.573 9.97411 29.4813C10.0271 29.4263 10.08 29.3529 10.0977 29.2795C10.1153 29.2428 10.0447 29.0961 10.0624 29.0594C10.133 28.8577 10.5567 28.9677 10.6626 29.0778C10.7685 29.2062 10.6802 29.4629 10.7685 29.6097C10.9274 29.8481 11.1216 29.7564 11.3334 29.7014C11.5806 29.6464 11.6688 29.6647 11.863 29.518C12.0749 29.3345 12.1455 29.5913 12.375 29.4996C12.3926 29.4996 12.5338 29.3346 12.5515 29.2979C12.6221 29.2428 12.7104 29.1145 12.781 29.0961C12.9399 29.0411 13.1694 29.2062 13.2576 29.3162C13.3989 29.4813 13.3812 29.6647 13.5754 29.7748C13.6283 29.8114 13.699 29.7931 13.7696 29.8298C13.8225 29.8481 13.8402 29.9215 13.8755 29.9398C13.9991 29.9949 14.1579 29.9582 14.2815 30.0315C14.4404 30.1233 14.4757 30.325 14.4934 30.5268C14.4934 30.6368 14.4757 30.7469 14.4934 30.8753C14.511 31.022 14.564 30.9853 14.6169 31.0954C14.6699 31.2054 14.6699 31.1321 14.6169 31.2788C14.5816 31.4072 14.4934 31.3705 14.5463 31.5539C14.6169 31.8474 14.8111 32.0308 15.0583 32.1042C15.3231 32.1959 15.3584 32.2326 15.5526 32.0308C15.8174 31.774 15.7644 32.1592 16.0292 32.1775C16.2057 32.1959 16.3999 31.9574 16.5941 31.9574C16.9119 31.9758 16.6647 32.2142 16.7883 32.4343C16.8589 32.5444 16.9825 32.6361 17.0707 32.7645C17.2296 33.0213 17.3002 33.2781 17.4591 33.5348C17.5827 33.7183 17.4944 33.9567 17.6886 34.0851C17.7592 34.1401 17.8475 34.1034 17.9357 34.1401C18.024 34.1952 18.0946 34.3236 18.1476 34.3969C18.2535 34.5803 18.3065 34.7638 18.3594 34.9655C18.4124 35.204 18.5713 35.3874 18.6419 35.6075C18.7125 35.8092 18.6772 36.0294 18.7125 36.2311C18.7655 36.4329 18.8184 36.6163 18.8008 36.7997ZM29.5163 4.37123H36.3834C37.0366 4.37123 37.5839 4.92149 37.5839 5.60014V10.6442C37.5486 10.6442 37.5133 10.6625 37.4956 10.6442C37.4073 10.5708 37.4073 10.4057 37.3367 10.314C37.0013 9.89215 36.8954 10.4974 36.6482 10.6075C36.4011 10.7175 36.4541 10.4424 36.3658 10.314C36.2775 10.1856 35.9774 10.2223 35.8892 10.0389C35.8185 9.85546 35.9245 9.80044 35.7656 9.61702C35.642 9.48863 35.5184 9.47029 35.4831 9.28687C35.4655 9.17682 35.5008 9.06676 35.4655 8.93837C35.4478 8.84666 35.3772 8.75495 35.3596 8.66324C35.3242 8.47982 35.3772 8.31474 35.3419 8.13132C35.3066 7.98458 35.236 7.87454 35.183 7.74614C35.1477 7.65444 35.2007 7.61775 35.0948 7.48935C34.8829 7.26925 34.724 7.59941 34.5122 7.43433C34.4592 7.3793 34.4239 7.08584 34.4416 6.99413C34.5122 6.82905 34.4592 6.9391 34.5299 6.77403C34.6887 6.42553 34.3886 5.98532 34.2297 5.82025C34.1238 5.72854 34.0532 5.67351 33.912 5.63683C33.8237 5.61849 33.6472 5.5818 33.5766 5.65516C33.5413 5.69185 33.5589 5.8019 33.5413 5.82025C33.4177 5.9303 33.2941 5.94864 33.0999 5.91196C33.0293 5.89361 32.994 5.91196 32.9411 5.89362C32.8704 5.87528 32.8351 5.8019 32.7292 5.78356C32.5527 5.76522 32.4821 5.94864 32.3055 5.82025C32.129 5.69185 32.2349 5.61849 32.2173 5.45341C32.182 5.21496 31.8995 4.81144 31.723 5.10491C31.6524 5.2333 31.5994 5.5818 31.4229 5.65516C31.3699 5.67351 31.1404 5.43507 31.0168 5.43507C30.9286 5.43507 30.5579 5.50844 30.5402 5.30668C30.5402 5.25165 30.5402 4.93984 30.4696 4.90315C30.3107 4.82978 29.94 5.08657 29.7635 5.0132C29.6399 4.97651 29.4987 4.55465 29.481 4.40792C29.4987 4.4446 29.4987 4.40792 29.5163 4.37123ZM36.4011 39.3859L24.2556 39.4042C24.2556 39.3125 24.2203 39.1658 24.1144 39.0741C24.0261 39.0007 23.8849 38.9274 23.7966 38.854C23.6554 38.7439 23.7613 38.6339 23.7437 38.4871C23.6907 38.1937 23.7437 38.2487 23.779 37.9736C23.7966 37.8085 23.7966 37.7535 23.7437 37.5884C23.6731 37.405 23.6907 37.35 23.6907 37.1665C23.6907 37.0565 23.6731 37.0015 23.6731 36.8731C23.6907 36.653 23.6554 36.7263 23.7437 36.5979C23.8143 36.4879 23.832 36.5246 23.8673 36.3962C23.8849 36.2861 23.8496 36.1761 23.8849 36.066C23.9202 35.956 23.9202 35.8643 23.9202 35.7726C23.9202 35.6809 23.9026 35.5525 23.8849 35.4424C23.8849 35.3323 23.9026 35.2223 23.9026 35.1122C23.9026 35.0022 23.8673 34.8921 23.8673 34.7821C23.8849 34.5253 23.9555 34.3786 24.0968 34.1768C24.1497 34.1034 24.2203 33.975 24.2909 33.92C24.3439 33.8833 24.4145 33.8833 24.4498 33.8467C24.591 33.7183 24.5734 33.5532 24.644 33.3698C24.6793 33.278 24.697 33.2597 24.7323 33.2047C24.7499 33.1864 24.8382 33.168 24.8735 33.1313C24.9088 33.0763 24.9441 32.7461 24.9794 32.6728C25.0147 32.5994 25.103 32.4894 25.1736 32.471C25.3678 32.3977 25.4561 32.4894 25.5796 32.5627C25.6502 32.5994 25.7562 32.5811 25.7915 32.5811C25.9857 32.5811 26.0563 32.5444 26.1975 32.4343C26.4446 32.2509 26.4446 32.1775 26.4623 31.8841C26.4799 31.7373 26.5506 31.4806 26.5153 31.3888C26.6741 31.1137 26.7271 31.077 26.6388 30.7652C26.5506 30.4351 26.4976 30.4167 26.7801 30.38C27.0802 30.3434 26.8507 30.0866 27.1861 30.0132C27.4156 29.9582 27.5038 29.9398 27.5921 29.7197C27.6451 29.573 27.6451 29.463 27.7333 29.3529C27.751 29.3162 28.2453 29.2612 28.2629 29.3896C28.3159 29.7014 29.0926 29.6464 29.1279 29.6647C29.2339 29.7014 29.3574 29.7197 29.481 29.7197C29.5516 29.7197 29.6046 29.7014 29.6575 29.7014C29.6928 29.7014 29.7105 29.6464 29.7635 29.6464C29.8694 29.6464 29.887 29.8298 29.993 29.8298C30.1695 29.8298 30.2754 29.8481 30.4166 29.683C30.5049 29.573 30.5579 29.4629 30.5932 29.3162C30.6285 29.1878 30.5579 29.1145 30.6108 28.9861C30.6461 28.876 30.7697 28.8393 30.8756 28.876C30.9815 28.931 30.9462 29.2062 30.9815 29.2979C31.0521 29.4813 31.1581 29.7748 31.264 29.9215C31.4229 30.1049 31.5464 30.1049 31.6877 30.27C31.7583 30.3434 31.9348 30.3617 32.0054 30.3067C32.0231 30.2883 32.0937 30.1783 32.1114 30.1599C32.1467 30.0682 32.3055 30.1233 32.3585 30.2883C32.4115 30.4718 32.5174 30.7836 32.7645 30.4534C32.9057 30.27 32.7645 29.7014 33.1529 30.1049C33.3118 30.27 33.2941 30.5268 33.5942 30.4167C33.8943 30.3067 33.9649 30.0866 34.0179 29.8298C34.0356 29.7014 34.0356 29.5913 34.1591 29.518C34.2474 29.4629 34.4416 29.518 34.4945 29.4629C34.5652 29.3896 34.4945 29.3162 34.5652 29.2062C34.6181 29.1328 34.8123 29.1695 34.8829 29.1511C35.0241 29.1328 34.9712 29.0044 35.1301 28.9677C35.2536 28.9494 35.3066 29.0227 35.4302 29.0044C35.5714 28.9861 35.7303 29.0961 35.8009 28.9677C35.8362 28.9127 36.048 28.5642 36.0657 28.5275C36.1186 28.4541 36.2952 28.4908 36.3658 28.5092C36.4541 28.5275 36.56 28.3074 36.6482 28.2891C36.8954 28.2524 36.8248 28.2891 36.966 28.0506C37.0366 27.9589 36.9837 27.4453 36.913 27.372C36.8071 27.2619 37.019 26.8951 36.9307 26.7667C36.8071 26.5649 36.56 26.4549 36.8601 26.2531C36.913 26.2164 36.9484 26.2348 37.019 26.1797C37.0543 26.1614 37.0719 26.1064 37.1072 26.088C37.1602 26.033 37.1955 25.978 37.2485 25.923C37.372 25.7762 37.4426 25.6478 37.5309 25.4827C37.5662 25.4277 37.5309 25.391 37.5662 25.336V38.1753C37.6015 38.8357 37.0543 39.3859 36.4011 39.3859Z" fill="url(#paint0_linear_82_5175)"/>
<path d="M121.319 34.8175H123.009V35.9978H121.319V39.5763C121.319 40.0634 121.433 40.4006 121.623 40.588C121.832 40.7566 122.003 40.8878 122.363 40.8878C122.667 40.8878 122.724 40.8878 122.933 40.8878L122.591 42.0119C122.382 42.0306 122.249 42.0306 122.249 42.0306C120.711 42.0306 119.933 41.2625 119.933 39.7449V36.0165H118.812V34.8362H119.933V33.1875H121.3V34.8175H121.319Z" fill="#427898"/>
<path d="M131.175 38.846H126.238C126.295 40.2511 126.921 40.8507 128.118 40.8507C128.668 40.8507 129.105 40.8132 129.409 40.5321C129.713 40.2511 129.846 39.9513 129.922 39.6141L131.137 39.9701C131.137 39.9701 130.89 40.8319 130.358 41.3003C129.827 41.7687 129.067 41.9935 128.099 41.9935C127.016 41.9935 126.2 41.675 125.668 41.0193C125.117 40.3635 124.852 39.5204 124.852 38.49V38.1715C124.852 37.1223 125.117 36.2792 125.668 35.6422C126.2 34.9865 126.997 34.668 128.042 34.668C129.067 34.668 129.865 34.9865 130.377 35.6422C130.909 36.2979 131.175 37.141 131.175 38.1715V38.846ZM128.023 35.7171C126.883 35.7171 126.276 36.4104 126.238 37.8155H129.808C129.751 36.4291 129.162 35.7171 128.023 35.7171Z" fill="#427898"/>
<path d="M108.272 34.8164L106.525 39.9125L104.779 34.8164H103.316L105.785 41.3363L105.462 42.1045C105.462 42.1045 105.462 42.1045 105.462 42.1232C105.367 42.2918 105.272 42.4417 105.139 42.5916C105.063 42.6853 104.779 42.8726 104.494 42.8726C104.437 42.8726 104.494 42.8726 104.38 42.8726C104.152 42.8539 104.095 42.8539 104 42.8352L104.418 44.2029C104.456 44.2029 104.57 44.2216 104.57 44.2029C104.57 44.2029 104.589 44.2029 104.646 44.2029H104.665C104.741 44.2029 104.798 44.2029 104.873 44.2029C104.892 44.2029 104.93 44.2029 104.949 44.2029C105.025 44.2029 105.12 44.1841 105.196 44.1654C105.234 44.1654 105.291 44.1467 105.329 44.1279C105.519 44.0717 105.709 43.9968 105.88 43.8844C105.975 43.8094 106.089 43.697 106.184 43.5846C106.184 43.5846 106.184 43.5659 106.203 43.5659C106.45 43.2474 106.658 42.8352 106.829 42.4417C107.095 41.8609 107.247 41.3551 107.247 41.3551L109.735 34.8351H108.272V34.8164Z" fill="#427898"/>
<path d="M148.565 39.9697C148.565 39.6887 148.452 39.4639 148.243 39.2765C148.015 39.0892 147.616 38.9393 146.989 38.8081C146.116 38.6208 145.451 38.3772 145.015 38.0587C144.578 37.7402 144.35 37.3093 144.35 36.766C144.35 36.2039 144.597 35.7168 145.091 35.3046C145.584 34.9112 146.23 34.7051 147.027 34.7051C147.863 34.7051 148.527 34.9112 149.021 35.3421C149.515 35.773 149.61 36.054 149.724 36.5412L148.471 36.8971C148.471 36.5973 148.338 36.3163 148.072 36.0728C147.806 35.8292 147.464 35.6981 147.027 35.6981C146.572 35.6981 146.211 35.7917 145.983 35.9978C145.755 36.2039 145.641 36.4287 145.641 36.7098C145.641 36.9908 145.736 37.1969 145.945 37.3655C146.154 37.5341 146.553 37.6653 147.16 37.7964C148.072 37.9838 148.736 38.2461 149.192 38.5646C149.629 38.8831 149.857 39.3327 149.857 39.8761C149.857 40.4943 149.591 41.0002 149.078 41.3749C148.565 41.7496 147.882 41.9557 147.046 41.9557C146.135 41.9557 145.413 41.7309 144.882 41.2812C144.35 40.8316 144.103 40.307 144.122 39.6887L144.141 39.6512L145.47 40.0259C145.565 40.307 145.584 40.4194 145.907 40.6255C146.23 40.8316 146.61 40.944 147.046 40.944C147.502 40.944 147.882 40.8503 148.148 40.663C148.433 40.5131 148.565 40.2695 148.565 39.9697Z" fill="#427898"/>
<path d="M115.812 39.9697C115.812 39.6887 115.698 39.4639 115.489 39.2765C115.261 39.0892 114.862 38.9393 114.236 38.8081C113.362 38.6208 112.697 38.3772 112.261 38.0587C111.824 37.7402 111.596 37.3093 111.596 36.766C111.596 36.2039 111.843 35.7168 112.337 35.3046C112.83 34.9112 113.476 34.7051 114.273 34.7051C115.109 34.7051 115.774 34.9112 116.267 35.3421C116.761 35.773 116.856 36.054 116.97 36.5412L115.717 36.8971C115.717 36.5973 115.584 36.3163 115.318 36.0728C115.052 35.8292 114.71 35.6981 114.273 35.6981C113.818 35.6981 113.457 35.7917 113.229 35.9978C113.001 36.2039 112.887 36.4287 112.887 36.7098C112.887 36.9908 112.982 37.1969 113.191 37.3655C113.4 37.5341 113.799 37.6653 114.406 37.7964C115.318 37.9838 115.982 38.2461 116.438 38.5646C116.894 38.8831 117.103 39.3327 117.103 39.8761C117.103 40.4943 116.837 41.0002 116.324 41.3749C115.812 41.7496 115.128 41.9557 114.292 41.9557C113.381 41.9557 112.659 41.7309 112.128 41.2812C111.596 40.8316 111.349 40.307 111.368 39.6887L111.387 39.6512L112.716 40.0259C112.811 40.307 112.83 40.4194 113.153 40.6255C113.476 40.8316 113.856 40.944 114.292 40.944C114.748 40.944 115.128 40.8503 115.394 40.663C115.66 40.4756 115.812 40.2695 115.812 39.9697Z" fill="#427898"/>
<path d="M100.355 39.9697C100.355 39.6887 100.241 39.4639 100.032 39.2765C99.8039 39.0892 99.4051 38.9393 98.7785 38.8081C97.905 38.6208 97.2404 38.3772 96.8036 38.0587C96.3669 37.7402 96.139 37.3093 96.139 36.766C96.139 36.2039 96.3859 35.7168 96.8796 35.3046C97.3733 34.9112 98.0189 34.7051 98.8164 34.7051C99.6519 34.7051 100.317 34.9112 100.81 35.3421C101.304 35.7543 101.399 36.054 101.513 36.5412L100.26 36.8971C100.26 36.5973 100.127 36.3163 99.8608 36.0728C99.595 35.8292 99.2532 35.6981 98.8164 35.6981C98.3607 35.6981 97.9999 35.7917 97.7721 35.9978C97.5442 36.2039 97.4303 36.4287 97.4303 36.7098C97.4303 36.9908 97.5252 37.1969 97.7341 37.3655C97.943 37.5341 98.3417 37.6653 98.9494 37.7964C99.8608 37.9838 100.525 38.2461 100.981 38.5646C101.418 38.8831 101.646 39.3327 101.646 39.8761C101.646 40.4943 101.38 41.0002 100.867 41.3749C100.355 41.7496 99.6709 41.9557 98.8354 41.9557C97.924 41.9557 97.2024 41.7309 96.6707 41.2812C96.139 40.8316 95.8922 40.307 95.9112 39.6887L95.9302 39.6512L97.2594 40.0259C97.3543 40.307 97.3733 40.4194 97.6961 40.6255C98.0189 40.8316 98.3987 40.944 98.8354 40.944C99.2912 40.944 99.6709 40.8503 99.9368 40.663C100.222 40.5131 100.355 40.2695 100.355 39.9697Z" fill="#427898"/>
<path d="M142.491 41.9755H141.162V37.0481C141.162 36.2237 140.763 35.7928 139.966 35.7928C139.339 35.7928 138.826 36.1113 138.427 36.7296V41.9568H137.079V37.0481C137.079 36.2237 136.68 35.7928 135.902 35.7928C135.237 35.7928 134.725 36.1113 134.364 36.7296V41.9568H133.016V36.8045V34.7624H134.345V35.287C134.345 35.3619 134.44 35.3994 134.497 35.3432C135.028 34.7998 135.731 34.5938 136.396 34.5938C137.326 34.5938 137.934 34.9872 138.238 35.7553C138.712 34.9684 139.453 34.5938 140.459 34.5938C141.124 34.5938 141.618 34.7998 141.959 35.1933C142.301 35.5867 142.472 36.1301 142.472 36.842L142.491 41.9755Z" fill="#427898"/>
<path d="M80.1533 7.44362H84.2169C84.4068 7.44362 84.5587 7.59351 84.5587 7.76213V10.3101C84.5587 10.535 84.5777 10.7598 84.2169 10.7598H80.1533V20.2212C80.1533 21.5139 80.628 22.1135 81.1407 22.6381C81.6534 23.1439 82.432 23.5186 83.3624 23.5186C83.7991 23.5186 83.97 23.5186 84.103 23.5186C84.3308 23.5186 84.5017 23.7247 84.4258 23.9495L83.7232 26.4414C83.6852 26.5538 83.5903 26.6287 83.4573 26.6287C83.0016 26.6287 82.8117 26.6474 82.6978 26.6474C78.3494 26.6287 76.3366 24.1931 76.5075 20.6146V10.7785H73.7731C73.6212 10.7785 73.4883 10.6474 73.4883 10.4975V7.72466C73.4883 7.57477 73.6212 7.44362 73.7731 7.44362H76.5075V3.0408C76.5075 2.87218 76.6404 2.75977 76.8113 2.75977H79.8495C80.0204 2.75977 80.1533 2.89091 80.1533 3.05953V7.44362Z" fill="#427898"/>
<path d="M113.272 25.8986H110.176C110.043 25.8986 109.949 25.8049 109.949 25.6737V13.2334C109.949 11.0788 108.885 10.0109 106.758 10.0109C105.087 10.0109 103.72 10.7978 102.676 12.3716C102.657 12.409 102.638 12.4465 102.638 12.5027V25.6925C102.638 25.8236 102.543 25.9173 102.41 25.9173H99.2769C99.144 25.9173 99.049 25.8236 99.049 25.6925V13.2521C99.049 11.0976 98.0047 10.0296 95.8969 10.0296C94.1499 10.0296 92.7828 10.8165 91.8143 12.3903C91.7953 12.4278 91.7764 12.4652 91.7764 12.5027V25.6925C91.7764 25.8236 91.6814 25.9173 91.5485 25.9173H88.4154C88.2824 25.9173 88.1875 25.8236 88.1875 25.6925V12.6151V7.59403C88.1875 7.46288 88.2824 7.3692 88.4154 7.3692H91.5295C91.6624 7.3692 91.7574 7.46288 91.7574 7.59403V8.7369C91.7574 8.94299 92.0042 9.03666 92.1561 8.88678C93.5993 7.48162 95.4412 6.95703 97.2071 6.95703C99.5427 6.95703 101.119 7.83759 101.954 9.59872C102.03 9.74861 102.239 9.76734 102.353 9.6362C103.644 7.85633 105.543 6.95703 108.069 6.95703C109.835 6.95703 111.183 7.46288 112.094 8.49333C113.006 9.52378 113.48 10.9289 113.48 12.7275V25.6925C113.499 25.7861 113.404 25.8986 113.272 25.8986Z" fill="#427898"/>
<path d="M69.0836 8.90472C67.9822 7.70565 66.1403 6.9375 63.5389 6.9375C60.9184 6.9375 59.3993 7.70565 58.317 8.90472C57.4245 9.8977 56.8928 11.0593 56.7409 12.427C56.7219 12.5581 56.8169 12.6705 56.9308 12.708L59.4563 13.42C59.5513 13.4574 59.7411 13.3825 59.7791 13.1951C60.1589 11.0968 61.2602 9.82276 63.4249 9.87897C64.8301 9.91644 65.6656 10.3474 66.2163 11.0031C66.767 11.6588 67.2607 12.3708 67.2607 13.7947L67.1847 14.2631L61.9818 15.0687C61.1843 15.1811 60.4627 15.331 59.8171 15.5371C59.6652 15.5745 59.5133 15.6307 59.3614 15.6869C59.3044 15.7057 59.2474 15.7244 59.1905 15.7619C57.2156 16.5863 55.8485 18.5535 55.7535 20.8205C55.6396 23.9868 58.317 26.2725 61.2982 26.3099H61.3552C61.4691 26.3099 61.5641 26.3099 61.678 26.3099C64.1275 26.235 65.7795 25.6729 67.2037 23.9493V25.6167C67.2037 25.7666 67.3366 25.8978 67.4885 25.8978H70.4698C70.6217 25.8978 70.7546 25.7666 70.7546 25.6167V13.6823C70.7166 11.4715 70.1659 10.0851 69.0836 8.90472ZM67.1847 21.0078C67.0898 21.139 67.0138 21.2514 66.8999 21.3825C65.8175 22.7315 64.2794 23.4059 62.2856 23.4059C61.2412 23.4059 60.4627 23.1437 59.931 22.6191C59.3993 22.0945 59.1335 21.4575 59.1335 20.6893V20.4083C59.1335 18.6659 60.2538 17.6354 62.4945 17.2795L65.1909 16.8298L67.1657 16.5113V21.0078H67.1847Z" fill="#427898"/>
<path d="M130.474 8.90472C129.373 7.70565 127.531 6.9375 124.93 6.9375C122.309 6.9375 120.79 7.70565 119.708 8.90472C118.815 9.8977 118.283 11.0593 118.132 12.427C118.113 12.5581 118.208 12.6705 118.321 12.708L120.847 13.42C120.942 13.4574 121.132 13.3825 121.17 13.1951C121.55 11.0968 122.651 9.82276 124.816 9.87897C126.221 9.91644 127.056 10.3474 127.607 11.0031C128.158 11.6588 128.651 12.3708 128.651 13.7947L128.575 14.2631L123.372 15.0687C122.575 15.1811 121.853 15.331 121.208 15.5371C121.056 15.5745 120.904 15.6307 120.752 15.6869C120.695 15.7057 120.638 15.7244 120.581 15.7619C118.606 16.5863 117.239 18.5535 117.144 20.8205C117.03 23.9868 119.708 26.2725 122.689 26.3099H122.746C122.86 26.3099 122.955 26.3099 123.069 26.3099C125.518 26.235 127.17 25.6729 128.594 23.9493V25.6167C128.594 25.7666 128.727 25.8978 128.879 25.8978H131.86C132.012 25.8978 132.145 25.7666 132.145 25.6167V13.6823C132.126 11.4715 131.557 10.0851 130.474 8.90472ZM128.575 21.0078C128.48 21.139 128.404 21.2514 128.291 21.3825C127.208 22.7315 125.67 23.4059 123.676 23.4059C122.632 23.4059 121.853 23.1437 121.322 22.6191C120.79 22.0945 120.524 21.4575 120.524 20.6893V20.4083C120.524 18.6659 121.644 17.6354 123.885 17.2795L126.582 16.8298L128.556 16.5113V21.0078H128.575Z" fill="#427898"/>
<path d="M149.31 9.69212C149.291 9.69212 149.291 9.69212 149.31 9.69212C148.455 7.94973 146.879 7.08789 144.563 7.08789C142.797 7.08789 140.955 7.61248 139.512 8.99891C139.36 9.13005 139.113 9.03638 139.113 8.84903V7.7249C139.113 7.59375 139.018 7.50007 138.885 7.50007H135.771C135.638 7.50007 135.543 7.59375 135.543 7.7249V12.7085V25.6735C135.543 25.8046 135.638 25.8983 135.771 25.8983H138.904C139.037 25.8983 139.132 25.8046 139.132 25.6735V12.6148C139.132 12.5774 139.151 12.5212 139.17 12.5024C140.005 11.1535 141.145 10.4041 142.55 10.2167C142.778 10.1792 143.025 10.1605 143.252 10.1605C145.36 10.1605 146.405 11.2284 146.405 13.3455V16.924V25.6735C146.405 25.8046 146.499 25.8983 146.632 25.8983H149.766C149.898 25.8983 149.993 25.8046 149.993 25.6735V12.6711C149.993 12.6336 149.993 12.6149 149.993 12.5774C149.993 12.5024 150.012 12.4462 149.993 12.3713C149.993 12.3525 149.993 12.3338 149.993 12.2964C149.974 11.3408 149.728 10.4415 149.31 9.69212Z" fill="#427898"/>
<defs>
<linearGradient id="paint0_linear_82_5175" x1="8.33239" y1="-0.154621" x2="34.2422" y2="43.0377" gradientUnits="userSpaceOnUse">
<stop stop-color="#8BC8D1"/>
<stop offset="0.3119" stop-color="#5F96B0"/>
<stop offset="0.6" stop-color="#407798"/>
</linearGradient>
</defs>
</svg>
